<svg width="68" height="68" viewBox="0 0 68 68" fill="none" xmlns="http://www.w3.org/2000/svg">
<g clip-path="url(#clip0_7_179)">
<path d="M68.1328 17C68.1328 25.7258 68.1328 34.4383 68.1328 43.1641C68.093 43.2703 68.0398 43.3633 68.0266 43.4695C67.2695 47.8258 64.7727 50.6148 60.5227 51.8234C60.1375 51.9297 60.1375 52.1555 60.1375 52.4609C60.1508 53.9484 60.1375 55.4227 60.1375 56.9102C60.1375 57.2953 60.1375 57.6937 60.1375 58.1055C56.1 58.1055 52.1555 58.1055 48.118 58.1055C48.118 57.8133 48.118 57.5477 48.118 57.2953C48.1047 55.5953 48.0781 53.8953 48.0648 52.1953C49.4062 52.1953 50.7344 52.1953 52.1289 52.1953C52.1289 51.7438 52.1289 51.4648 52.1289 51.1727C52.1289 37.1211 52.1289 23.0695 52.1289 9.01797C52.1289 8.7125 52.1688 8.40703 52.182 8.08828C54.1875 8.10156 56.2062 8.10156 58.2117 8.12813C62.7539 8.16797 66.7383 11.3289 67.8273 15.725C67.9469 16.15 68.0398 16.575 68.1328 17ZM0.132812 68.1328C22.8039 68.1328 45.4617 68.1328 68.1328 68.1328C68.1328 66.1406 68.1328 64.1484 68.1328 62.1562C67.9336 62.1562 67.7344 62.143 67.5352 62.143C45.2625 62.143 23.0031 62.143 0.730469 62.143C0.53125 62.143 0.332031 62.1562 0.132812 62.1562C0.132812 64.1484 0.132812 66.1406 0.132812 68.1328ZM38.8211 52.1422C41.6633 52.1422 44.5187 52.1422 47.3609 52.1422C47.6 52.1422 47.8391 52.182 48.0781 52.2086C48.0781 50.8672 48.0781 49.5391 48.0781 48.1844C44.7313 48.1844 41.4508 48.1844 38.1039 48.1844C38.1039 49.5656 38.1039 50.8937 38.1039 52.2086C38.343 52.182 38.582 52.1422 38.8211 52.1422ZM34.1195 58.1055C35.5141 58.1055 36.7891 58.1055 38.1172 58.1055C38.1172 56.1133 38.1172 54.1477 38.1172 52.1953C36.7891 52.1953 35.4477 52.1953 34.1195 52.1953C34.1195 54.1609 34.1195 56.1398 34.1195 58.1055ZM38.1039 8.08828C38.1039 10.0672 38.1039 12.0594 38.1039 14.0781C41.4773 14.0781 44.7578 14.0781 48.0781 14.0781C48.0781 12.0594 48.0781 10.0672 48.0781 8.08828C44.7578 8.08828 41.4375 8.08828 38.1039 8.08828ZM52.2086 4.17031C50.7609 4.17031 49.4727 4.17031 48.0781 4.17031C48.0781 5.51172 48.0781 6.81328 48.0781 8.10156C49.4594 8.10156 50.8406 8.10156 52.2086 8.10156C52.2086 6.8 52.2086 5.48516 52.2086 4.17031ZM38.1305 4.17031C36.7492 4.17031 35.4609 4.17031 34.1328 4.17031C34.1328 5.51172 34.1328 6.81328 34.1328 8.10156C35.4609 8.10156 36.8023 8.10156 38.1305 8.10156C38.1305 6.8 38.1305 5.48516 38.1305 4.17031ZM38.1836 18.1953C38.1836 20.2008 38.1836 22.1531 38.1836 24.0789C41.5172 24.0789 44.7977 24.0789 48.0914 24.0789C48.0914 22.0867 48.0914 20.1477 48.0914 18.1953C44.7313 18.1953 41.4508 18.1953 38.1836 18.1953ZM48.0781 34.093C48.0781 32.1008 48.0781 30.1484 48.0781 28.1695C44.7578 28.1695 41.4773 28.1695 38.157 28.1695C38.157 30.1484 38.157 32.0875 38.157 34.093C41.4906 34.093 44.7711 34.093 48.0781 34.093ZM48.0648 38.1836C44.718 38.1836 41.4508 38.1836 38.157 38.1836C38.157 40.1758 38.157 42.1148 38.157 44.0805C41.4641 44.0805 44.7445 44.0805 48.0648 44.0805C48.0648 42.0617 48.0648 40.1094 48.0648 38.1836ZM16.4289 30.1484H19.2578V25.8984H16.4289V30.1484ZM34.1461 52.2086C33.9734 52.182 33.8008 52.1422 33.6281 52.1422C29.3117 52.1422 25.0086 52.1422 20.6922 52.1422C20.5195 52.1422 20.3602 52.182 20.1078 52.2086C20.1078 54.2008 20.1078 56.1531 20.1078 58.1055C16.0703 58.1055 12.1258 58.1055 8.11484 58.1055C8.11484 57.8266 8.11484 57.5875 8.11484 57.3484C8.11484 55.7281 8.10156 54.1211 8.12813 52.5008C8.12813 52.0891 8.03516 51.9031 7.59688 51.7703C3.90469 50.7078 1.52734 48.3039 0.451563 44.625C0.31875 44.1867 0.239063 43.7352 0.132812 43.2969C0.132812 34.5312 0.132812 25.7656 0.132812 17C0.172656 16.8805 0.225781 16.7609 0.252344 16.6281C0.996094 12.5641 3.34687 9.86797 7.25156 8.57969C8.14141 8.2875 9.09766 8.20781 10.0805 8.02188C10.0805 6.77344 10.0805 5.48516 10.0805 4.11719C8.75234 4.11719 7.46406 4.11719 6.10938 4.11719C6.10938 2.73594 6.10938 1.43438 6.10938 0.132812C13.4539 0.132812 20.8117 0.132812 28.1562 0.132812C28.1562 1.44766 28.1562 2.7625 28.1562 4.15703C26.7617 4.15703 25.4734 4.15703 24.1852 4.15703C24.1852 5.51172 24.1852 6.78672 24.1852 8.08828C24.3313 8.10156 24.4242 8.11484 24.5305 8.11484C27.7312 8.10156 30.932 8.08828 34.1461 8.075C34.1461 19.6828 34.1328 31.3039 34.1328 42.9117C34.1328 46.0195 34.1461 49.1141 34.1461 52.2086ZM11.475 25.1945C11.475 24.4109 10.8375 23.7734 10.0539 23.7734H5.80391C5.02031 23.7734 4.38281 24.4109 4.38281 25.1945V30.8656C4.38281 31.6492 5.02031 32.2867 5.80391 32.2867H10.0539C10.8375 32.2867 11.475 31.6492 11.475 30.8656V29.4445H9.35V30.1484H6.50781V25.8984H9.33672V26.6023H11.4617V25.1945H11.475ZM21.3961 25.1945C21.3961 24.4109 20.7586 23.7734 19.975 23.7734H15.725C14.9414 23.7734 14.3039 24.4109 14.3039 25.1945V30.8656C14.3039 31.6492 14.9414 32.2867 15.725 32.2867H19.975C20.7586 32.2867 21.3961 31.6492 21.3961 30.8656V25.1945ZM30.6 29.4445C30.6 28.6609 29.9625 28.0234 29.1789 28.0234H24.225V30.1484H28.475V31.5695H25.6461C24.8625 31.5695 24.225 32.207 24.225 32.9906V36.5234H30.6V34.3984H26.35V32.9773H29.1789C29.9625 32.9773 30.6 32.3398 30.6 31.5563V29.4445Z" fill="#198754"/>
</g>
<defs>
<clipPath id="clip0_7_179">
<rect width="68" height="68" fill="white"/>
</clipPath>
</defs>
</svg>
