<svg id="圖層_1" data-name="圖層 1" xmlns="http://www.w3.org/2000/svg" viewBox="0 0 158 174"><path d="M101.63,135c4,2.9,12.2,5.9,17.4,7-2.2,22.9-7.7,28.6-24.6,28.6H67.73c-21.3,0-26.4-5.4-26.4-22.6v-26.1h19.4V148c0,4.8,1.4,5.3,9.3,5.3h22.9C99.63,153.16,100.73,151,101.63,135Zm-33.2-28.7H17.93V30.16h115.3v76.1H72.43c10.9,5.6,23.4,13.8,29.8,20.5l-13.8,13.1c-6.2-7-19.8-16.8-31.2-23Zm45.7-30.4H84.83v13.8h29.3Zm0-29.1H84.83v13.6h29.3ZM36,60.36h30.1V46.76H36Zm0,29.3h30.1V75.86H36Zm94,27-17.1,7c8.5,12.5,16.8,29,19.5,39.7l18.7-7.8C147.93,144.26,138.83,128.56,130,116.66ZM2,155l17.1,9.6c7.7-10.7,13.3-26.9,17-40.6l-17.3-6.2C15.43,130.76,9.33,145.36,2,155Z" fill="#fff"/></svg>