<svg id="圖層_1" data-name="圖層 1" xmlns="http://www.w3.org/2000/svg" viewBox="0 0 158 174"><path d="M9.63,30.26v137.3h18.1v-.2h100v.2h19V30.26Zm118,120h-100V47.56h77.6L97.73,55a85.26,85.26,0,0,1,12.4,8.6H92.83q-.3-6.75-.6-13.8h-16c.2,4.6.5,9.2.8,13.8H33.33V77H78c1.4,16,3.6,30.6,7,42.2a84.15,84.15,0,0,1-7.9,7.9l-.3-8.1c-16.8,2.2-33.6,4.3-45.3,5.6l1.8,13.9c10.6-1.6,23.2-3.5,36.1-5.5-1.7,1.1-3.4,2.2-5.2,3.3a68.91,68.91,0,0,1,10.4,11.5,99,99,0,0,0,16.7-13.7c3.3,5.4,7.2,9.1,12.1,10.6,10.6,4.8,19.2-1.3,21.6-21.1a54.92,54.92,0,0,1-11.8-9.1c-.8,9.4-2.1,15.7-3.8,15.2-2.8-.7-5.2-3.8-7.3-8.6a122.12,122.12,0,0,0,17-36.8l-14.9-2.9a97,97,0,0,1-7.4,20c-1.3-7.3-2.3-15.6-3.1-24.5h28.9V63.56h-7.8l6.5-6.7c-2.8-3.1-8.3-6.7-13.3-9.3h19.5v102.7Zm-54.2-66.4H37.63v30.6h35.8Zm-12.8,20.5H49.93V94.16h10.7Z" fill="#fff"/></svg>