<svg id="圖層_1" data-name="圖層 1" xmlns="http://www.w3.org/2000/svg" viewBox="0 0 158 174"><path d="M56.53,111.76a56.21,56.21,0,0,0-1.9-15.1,48.8,48.8,0,0,1,8.9,11.1A87.79,87.79,0,0,0,79.83,94v6.7h47v-9.9a72,72,0,0,0,19,16.8,53.41,53.41,0,0,1,10.9-13.3c-8.8-4.7-16.4-11.8-22.7-20.4,7.7-9.5,15-23.6,19.5-36.9l-10.3-5.9-3.2.8h-25.3v7.2l-8.2,1.9c.2-1,.4-1.9.7-2.9l-9.6-3.7L95,35H83.23a83.56,83.56,0,0,0,3.2-8.3l-14.2-3.1c-4,12.6-10.9,24.5-19.6,33.2,2.2-7.2,4.3-14.5,6-21.2L46.83,29l-2.6.7H10.63v143.5h16.3V46.76h11.7c-2.3,10.5-5.4,23.4-8.3,33.3,8.5,11.5,10.2,21.9,10.2,29.6,0,4.6-1,8.5-2.7,9.9a5.39,5.39,0,0,1-4,1.3c-1.9,0-3.8,0-6.6-.2,2.6,4.5,3.8,11.4,4,15.7a45.62,45.62,0,0,0,9.9-.2,19.36,19.36,0,0,0,8.6-3.5C54.63,129.06,56.53,122,56.53,111.76Zm63-67.2h14a98,98,0,0,1-7.6,15.6A106.42,106.42,0,0,1,119.53,44.56ZM105,47.26c4.4,14.3,10.3,27.3,17.9,38.2H86.83C94.63,75,100.83,62.16,105,47.26Zm-15,.3c-1.1,3.4-2.3,6.7-3.7,9.9-3.3-2.7-7-5.6-10.3-8,.4-.6.7-1.2,1.1-1.9Zm-44.2,30.7c1.6-4.7,3.2-10,4.9-15.4a92.35,92.35,0,0,1,8.7,7.6,84.07,84.07,0,0,0,9.9-11.2c3.8,3.1,7.8,6.6,11,9.6a97.58,97.58,0,0,1-5.5,8.2l-.2-6.8c-8.8,1-15.8,1.8-22.4,2.2l1.9,11.8c6-1.1,11.4-2.1,17.5-3.2a69.16,69.16,0,0,1-17.1,14.8A60.88,60.88,0,0,0,45.83,78.26Zm67.5,48.8v46.2H95.23v-46.2h-30v-15.5H143v15.5Zm21,3.7c7,8,17,19.2,21.9,26.1l-14.9,9.4c-4.5-6.9-14.1-18.7-21.1-27.2Zm-64,1.9,17.1,5.6a200.28,200.28,0,0,1-21.6,29.3,131.6,131.6,0,0,0-15.2-9.8A116.3,116.3,0,0,0,70.33,132.66Z" fill="#fff"/></svg>