<?xml version="1.0" encoding="utf-8"?>
<!-- Generator: Adobe Illustrator 25.3.1, SVG Export Plug-In . SVG Version: 6.00 Build 0)  -->
<svg version="1.1" id="圖層_1" xmlns="http://www.w3.org/2000/svg" xmlns:xlink="http://www.w3.org/1999/xlink" x="0px" y="0px"
	 viewBox="0 0 140 174" style="enable-background:new 0 0 140 174;" xml:space="preserve">
<style type="text/css">
	.st0{fill:#FFFFFF;}
	.st1{fill:#B3D600;}
</style>
<path class="st0" d="M91.3,120.5c0,35.2-12.1,52.1-49.5,52.1c-7.7,0-16.4-0.6-21.2-1.9v-30.8c2.9,0.3,8.7,0.7,12.8,0.7
	c12.7,0,15.3-7.6,15.3-17.7V24.7h42.6V120.5z"/>
<path class="st1" d="M34.5,56.4c-1.3-5.3-1.3-12,3.9-17.8c5.6-6.3,15.4-8.3,23.8-8.4s17,1,24.9-1.9c10.5-4.1,17.3-14.5,16.9-25.8
	c-2.3,2.6-6.3,3.2-9.8,2.6c-3.5-0.6-6.6-2.2-9.9-3.3C66.6-4.1,47.5,5.4,41.5,23c0,0,12.4-12.2,35.6-7.8c0,0-33.3,3.3-42.9,23.4
	c-2.6,5.6-3,12-1.1,17.8L34.5,56.4z"/>
</svg>
