<svg id="圖層_1" data-name="圖層 1" xmlns="http://www.w3.org/2000/svg" viewBox="0 0 158 174"><path d="M147,132.36H83.53v-9.3h48.6V59.46H82v-9.2h57.9v-16H82V23.46H62.23v36H17.43v63.7h46.2v9.3h-62v17.4h62.1v23.8h19.8v-23.8H147ZM36.63,74.76h75.5v9.3H36.63Zm0,23.5h75.5v9.6H36.63Z" fill="#fff"/><path d="M19.57,59.46c-1.37-5.46-1.3-12.26,4-18.27,5.7-6.42,15.79-8.55,24.38-8.64s17.47,1,25.53-1.93A27.19,27.19,0,0,0,90.77,4.2c-2.39,2.69-6.44,3.26-10,2.62S74,4.52,70.58,3.41A34.84,34.84,0,0,0,26.8,25.24s12.72-12.53,36.5-8c0,0-34.09,3.36-44,24a24.71,24.71,0,0,0-1.1,18.27Z" fill="#b3d600"/></svg>