<svg xmlns="http://www.w3.org/2000/svg" viewBox="0 0 140 174"><g id="圖層_1" data-name="圖層 1"><path d="M126.64,120.52c0,35.18-12.07,52.06-49.47,52.06-7.74,0-16.4-.64-21.17-1.9V139.83c2.91.35,8.66.7,12.81.7,12.7,0,15.26-7.62,15.26-17.68V24.71h42.57Z" fill="#fff"/><path d="M69.82,56.38c-1.33-5.33-1.26-12,3.91-17.83,5.56-6.26,15.4-8.34,23.79-8.43s17,1,24.91-1.88A26.55,26.55,0,0,0,139.3,2.46C137,5.08,133,5.64,129.54,5s-6.61-2.25-9.94-3.33A34,34,0,0,0,76.88,23s12.41-12.23,35.61-7.81c0,0-33.26,3.28-42.93,23.42a24.09,24.09,0,0,0-1.07,17.83Z" fill="#b3d600"/></g></svg>