<svg xmlns="http://www.w3.org/2000/svg" viewBox="0 0 140 174"><g id="圖層_1" data-name="圖層 1"><path d="M47.18,126.22c2.43,12.69,11.32,18,25.09,18,12.91,0,18.86-4.52,18.86-13,0-9.57-6.45-13.2-29.45-18.69-43-10.41-51.52-26.09-51.52-45.69,0-24.43,18-44.9,58.48-44.9C110.77,22,128,43.38,130,66.34H88.8c-1.12-7.81-5.12-15.76-20.26-15.76-9.77,0-15.78,3.68-15.78,11.56s5.34,11,27.79,16.47c44.88,11.2,53.78,27.36,53.78,48.07C134.33,154,113.24,173,70.49,173c-40.27,0-61.6-18.8-64.82-46.81Z" fill="#fff"/></g></svg>