<svg width="68" height="68" viewBox="0 0 68 68" fill="none" xmlns="http://www.w3.org/2000/svg">
<path d="M58.9435 43.0219C58.9435 40.4984 58.9435 37.975 58.9435 35.4515C58.9435 34.3532 59.3127 33.9906 60.427 33.9906C61.0911 33.9906 61.7552 33.976 62.4192 33.9906C64.2162 34.0437 65.6984 35.4516 65.7183 37.2458C65.759 41.1213 65.759 44.9959 65.7183 48.8696C65.6997 50.5762 64.3795 51.9309 62.6742 52.0837C61.8574 52.1406 61.0381 52.153 60.2199 52.1208C59.3247 52.1023 58.9475 51.6985 58.9449 50.7927C58.9382 48.2029 58.9435 45.613 58.9435 43.0219ZM36.9657 14.7222C39.3099 14.7222 41.654 14.7222 43.9981 14.7222C44.9278 14.7222 45.4737 14.0926 45.2811 13.2984C45.1483 12.7287 44.706 12.463 43.8813 12.463C36.5394 12.463 29.1971 12.463 21.8543 12.463C21.677 12.4542 21.4992 12.4608 21.3231 12.483C20.485 12.633 20.0667 13.6783 20.659 14.268C20.9326 14.5336 21.4346 14.7036 21.8344 14.7062C25.504 14.7394 29.1763 14.7262 32.8472 14.7262L36.9657 14.7222ZM4.51564 28.8202C4.52273 28.6214 4.51919 28.4223 4.50501 28.2239C4.48632 27.9565 4.36983 27.7054 4.17776 27.5185C3.9857 27.3316 3.73152 27.222 3.46376 27.2105C3.18538 27.1879 2.9087 27.2711 2.68888 27.4434C2.46907 27.6157 2.32227 27.8645 2.27775 28.1402C2.25097 28.3605 2.24298 28.5827 2.25384 28.8043C2.25384 34.5365 2.25384 40.2682 2.25384 45.9995C2.24449 46.1984 2.24982 46.3977 2.26978 46.5958C2.30051 46.8741 2.43587 47.1304 2.64844 47.3126C2.86101 47.4948 3.13489 47.5895 3.41462 47.5773C3.69458 47.5794 3.96449 47.4731 4.16794 47.2808C4.37139 47.0885 4.49264 46.825 4.50634 46.5454C4.51923 46.3482 4.52233 46.1505 4.51564 45.953C4.51564 43.1197 4.51564 40.2864 4.51564 37.453C4.51564 34.5737 4.51564 31.6961 4.51564 28.8202ZM36.21 20.3468V17.0265H29.4844V20.3468H36.21ZM54.4531 47.5308H56.6286V38.5394H54.4531V47.5308ZM10.1442 35.1952H6.82392V39.6378H10.1442V35.1952ZM52.1342 40.9792C52.1342 45.2744 52.1342 49.5686 52.1342 53.862C52.1342 55.2273 51.8288 55.5248 50.4449 55.5248H38.9579C35.0838 55.5248 31.2109 55.5155 27.3381 55.5328C27.0748 55.5425 26.8125 55.495 26.5692 55.3937C26.326 55.2924 26.1076 55.1396 25.929 54.9458C24.2688 53.2577 22.5781 51.5989 20.9153 49.9122C20.1251 49.1087 19.2034 48.7062 18.0692 48.7288C16.6534 48.7554 15.2363 48.7408 13.8192 48.7288C12.8895 48.7288 12.4658 48.3171 12.4645 47.4007C12.4645 41.1142 12.4645 34.8278 12.4645 28.5413C12.4645 27.5997 12.8629 27.2132 13.7926 27.1986C14.8099 27.1893 15.8286 27.2052 16.8473 27.1986C18.797 27.176 20.1344 25.9701 20.3788 24.0283C20.5195 22.9114 20.7865 22.667 21.9101 22.667H42.6926C43.8374 22.667 44.2 23.0349 44.2053 24.1758C44.2053 24.7947 44.1974 25.4149 44.2053 26.0351C44.2385 27.9808 45.6596 29.4179 47.6093 29.4604C48.6267 29.4816 49.6453 29.4604 50.664 29.4604C51.7584 29.4604 52.1249 29.8296 52.1249 30.9452C52.1364 34.2903 52.1395 37.6345 52.1342 40.9779V40.9792ZM40.1346 39.0999C40.1346 37.5501 39.675 36.0351 38.814 34.7465C37.953 33.4579 36.7292 32.4535 35.2974 31.8604C33.8655 31.2674 32.29 31.1122 30.77 31.4145C29.2499 31.7169 27.8537 32.4632 26.7578 33.5591C25.662 34.6549 24.9157 36.0512 24.6133 37.5712C24.311 39.0912 24.4661 40.6668 25.0592 42.0986C25.6523 43.5304 26.6567 44.7542 27.9453 45.6153C29.2339 46.4763 30.7489 46.9358 32.2987 46.9358C34.3769 46.9358 36.37 46.1103 37.8395 44.6408C39.3091 43.1712 40.1346 41.1781 40.1346 39.0999ZM33.0849 32.8179L29.159 40.4652H31.8909V45.3793L35.7146 37.7319H33.0849V32.8179Z" fill="#198754"/>
</svg>
