<svg width="68" height="68" viewBox="0 0 68 68" fill="none" xmlns="http://www.w3.org/2000/svg">
<g clip-path="url(#clip0_7_167)">
<path d="M68.1328 49.2733C67.9136 50.2402 67.7781 51.235 67.4621 52.17C66.1193 56.1464 63.6211 58.9979 59.4229 60.071C58.6694 60.2458 57.8974 60.3287 57.1239 60.318C52.8301 60.3406 48.5363 60.33 44.2411 60.3286C44.1083 60.3286 43.9755 60.3154 43.7099 60.3021C47.4618 56.9818 49.3185 52.8646 49.3199 47.9784C49.3212 43.0922 47.4857 38.9472 43.6899 35.6189C44.0246 35.6043 44.2557 35.5843 44.4868 35.5843C48.4712 35.5843 52.4556 35.6972 56.4399 35.5565C62.4391 35.3453 66.0755 39.5581 67.3306 43.3459C67.6838 44.4084 67.8711 45.5254 68.1341 46.6171L68.1328 49.2733Z" fill="#198754"/>
<path d="M0.132812 46.6174C0.398438 45.5257 0.581719 44.4088 0.937656 43.3476C1.71886 40.9258 3.27535 38.8284 5.36695 37.379C9.28094 34.6524 14.3345 35.072 17.858 38.3884C22.8783 43.1112 23.193 51.7706 18.53 56.8493C13.9865 61.7966 6.85711 61.4313 2.7718 56.0392C1.40823 54.228 0.544035 52.0907 0.265625 49.8408C0.239063 49.6495 0.181953 49.4623 0.139453 49.2737L0.132812 46.6174ZM11.0009 39.1454C9.72721 39.1324 8.4836 39.5322 7.45609 40.2849C3.11312 43.3502 2.40125 50.2034 5.98852 54.3206C8.89844 57.6515 13.2812 57.5944 16.1048 54.1877C18.8939 50.8143 19.0267 45.5988 16.3784 42.1018C15.0317 40.3168 13.3038 39.1972 11.0009 39.1454Z" fill="#198754"/>
<path d="M31.3438 32.6719C38.8902 26.2518 38.8423 14.2894 31.4341 7.98607C31.6997 7.96216 31.871 7.93294 32.049 7.93294C36.3402 7.93294 40.6313 7.92232 44.9225 7.93294C48.3358 7.94755 51 9.46294 53.0745 12.086C57.4295 17.603 56.521 26.1814 51.1381 30.4792C49.3359 31.9189 47.2733 32.6719 44.9504 32.6719H31.3438Z" fill="#198754"/>
<path d="M34.9934 60.3303C31.438 60.1749 28.4683 58.1203 26.4549 54.6193C23.545 49.5631 24.387 42.7804 28.3594 38.7416C32.5164 34.5128 38.7055 34.5235 42.8479 38.7668C47.9267 43.9704 47.5854 53.0827 42.1188 57.8254C40.2421 59.455 38.0693 60.3223 34.9934 60.3303ZM42.8984 48.3439C42.9064 45.7328 42.1613 43.5627 40.792 41.8361C38.1756 38.545 34.0186 38.2356 31.0555 41.1083C27.3886 44.6584 27.3925 51.2804 31.0635 54.8159C33.8525 57.5067 37.6377 57.4323 40.3139 54.614C41.9251 52.9181 42.8466 50.6826 42.8984 48.3439Z" fill="#198754"/>
<path d="M12.4379 19.9062C12.4923 16.5858 13.689 13.324 16.4222 10.7288C20.4066 6.95295 26.2822 7.01006 30.2493 10.8138C35.3547 15.7173 35.429 24.6263 30.4114 29.6214C25.8851 34.1211 19.044 33.5872 15.1127 28.4141C13.2998 26.0315 12.4565 23.3035 12.4379 19.9062ZM30.5787 20.5091C30.5561 17.817 29.7819 15.5685 28.0553 13.6905C25.5836 11.0024 21.9565 10.7394 19.2007 13.0265C14.9334 16.5752 14.9201 23.9689 19.1768 27.5362C21.7507 29.6958 25.071 29.6466 27.5546 27.3808C29.6172 25.5002 30.507 23.095 30.5787 20.5091Z" fill="#198754"/>
<path d="M27.4722 35.6484C25.6845 37.148 24.2561 39.0297 23.2926 41.1548C22.2567 39.0059 20.9485 37.1864 19.0771 35.6484H27.4722Z" fill="#198754"/>
<path d="M27.5055 60.2967H19.0812C20.8785 58.7862 22.3148 56.8924 23.2847 54.7544C24.2615 56.893 25.7035 58.7865 27.5055 60.2967Z" fill="#198754"/>
<path d="M15.4062 47.9691C15.3332 49.7607 14.8378 51.3797 13.5654 52.6826C11.9996 54.2883 9.99676 54.2883 8.41497 52.7091C5.99114 50.2866 5.97919 45.6701 8.39106 43.2356C9.96489 41.6419 11.977 41.6326 13.5468 43.2223C14.8484 44.5372 15.3438 46.1761 15.4062 47.9691Z" fill="#198754"/>
<path d="M31.195 47.2813C31.2069 46.2267 31.7063 44.6781 32.8618 43.3832C34.4436 41.6115 36.6084 41.5929 38.2473 43.3102C40.5782 45.7539 40.5689 50.1952 38.2261 52.6363C36.5779 54.3548 34.3745 54.2871 32.7954 52.4702C31.7647 51.2855 31.191 49.6719 31.195 47.2813Z" fill="#198754"/>
<path d="M27.6847 20.2777C27.6621 22.0176 27.1681 23.5901 25.99 24.8996C24.4441 26.6182 22.3151 26.6567 20.6961 25.0192C18.2697 22.5648 18.2803 17.9881 20.7187 15.5536C22.3125 13.9678 24.3047 13.9599 25.8679 15.5735C27.1349 16.8777 27.6449 18.4914 27.6847 20.2777Z" fill="#198754"/>
</g>
<defs>
<clipPath id="clip0_7_167">
<rect width="68" height="68" fill="white"/>
</clipPath>
</defs>
</svg>
