<?xml version="1.0" encoding="utf-8"?>
<!-- Generator: Adobe Illustrator 25.3.1, SVG Export Plug-In . SVG Version: 6.00 Build 0)  -->
<svg version="1.1" id="圖層_1" xmlns="http://www.w3.org/2000/svg" xmlns:xlink="http://www.w3.org/1999/xlink" x="0px" y="0px"
	 viewBox="0 0 804 204" style="enable-background:new 0 0 804 204;" xml:space="preserve">
<style type="text/css">
	.st0{fill-rule:evenodd;clip-rule:evenodd;fill:url(#SVGID_1_);}
	.st1{fill:url(#SVGID_2_);}
	.st2{fill:url(#SVGID_3_);}
	.st3{fill:url(#SVGID_4_);}
	.st4{fill:url(#SVGID_5_);}
	.st5{fill:url(#SVGID_6_);}
	.st6{fill:url(#SVGID_7_);}
	.st7{fill:url(#SVGID_8_);}
	.st8{opacity:0.83;fill:url(#SVGID_9_);enable-background:new    ;}
	.st9{fill-rule:evenodd;clip-rule:evenodd;fill:url(#SVGID_10_);}
	.st10{opacity:0.6;fill:url(#SVGID_11_);enable-background:new    ;}
	.st11{fill-rule:evenodd;clip-rule:evenodd;fill:url(#SVGID_12_);}
	.st12{fill:#676767;}
	.st13{fill:none;stroke:#676767;stroke-miterlimit:10;}
</style>
<linearGradient id="SVGID_1_" gradientUnits="userSpaceOnUse" x1="184.8386" y1="-300.9735" x2="341.0582" y2="-300.9735" gradientTransform="matrix(1 0 0 -1 0 -200.78)">
	<stop  offset="0.2" style="stop-color:#788C9B"/>
	<stop  offset="0.52" style="stop-color:#B3D600"/>
	<stop  offset="1" style="stop-color:#CCD800"/>
</linearGradient>
<path class="st0" d="M322.4,55.9c-3-3.7-6.5-6.9-10.4-9.6l-0.1-0.1l0,0c-2.3-1.6-4.9-3-7.6-3.9L329.4,21l-72,27.7
	c16.8,0,32.9,12.6,39.9,18.9l0,0l0.5,0.4c2,1.8,3.1,3,3.1,3l0.1-0.1c10.8,10.7,15.8,26,13.5,41c-4.9,35.3-47.2,53.3-75.8,31.9
	c-6.2-4.6-11.6-10.5-17.1-16c-4.8-4.8-11.7-12.1-16.5-17.2c-9.2,8.8-15.9,13.2-20.4,17.6c7.4,7.5,20.6,20.5,28,28.1
	c9.3,9.7,21.1,16.7,34,20.3c30.1,8.6,64.4-3.9,81.5-29.9C347.8,117,344.3,80.5,322.4,55.9z"/>
<linearGradient id="SVGID_2_" gradientUnits="userSpaceOnUse" x1="172.3486" y1="-279.2205" x2="172.4286" y2="-279.2205" gradientTransform="matrix(1 0 0 -1 0 -200.78)">
	<stop  offset="0.15" style="stop-color:#CCD800"/>
	<stop  offset="0.48" style="stop-color:#B3D600"/>
	<stop  offset="0.97" style="stop-color:#788C9B"/>
</linearGradient>
<path class="st1" d="M172.4,78.4L172.4,78.4v0.1V78.4z"/>
<linearGradient id="SVGID_3_" gradientUnits="userSpaceOnUse" x1="18.7586" y1="-264.5342" x2="174.1986" y2="-264.5342" gradientTransform="matrix(1 0 0 -1 0 -200.78)">
	<stop  offset="0.15" style="stop-color:#CCD800"/>
	<stop  offset="0.48" style="stop-color:#B3D600"/>
	<stop  offset="0.97" style="stop-color:#788C9B"/>
</linearGradient>
<path class="st2" d="M172.4,78.5L172.4,78.5L172.4,78.5L172.4,78.5c-8.3-8.3-17.8-18-26-25.9c-21.2-20.6-46.4-27-74.6-19
	C52,39.3,35.4,53.2,26.4,71.8h32.3c0.2-0.3,0.5-0.5,0.8-0.8c16.3-16.3,42-19,61-5.6C126.9,70,132.3,76,138,81.5
	c3.8,3.7,12.1,12,15.6,15.7l20.6-16.9C173.6,79.7,173,79.1,172.4,78.5z"/>
<linearGradient id="SVGID_4_" gradientUnits="userSpaceOnUse" x1="172.3486" y1="-279.2455" x2="172.4286" y2="-279.2455" gradientTransform="matrix(1 0 0 -1 0 -200.78)">
	<stop  offset="0.15" style="stop-color:#CCD800"/>
	<stop  offset="0.48" style="stop-color:#B3D600"/>
	<stop  offset="0.97" style="stop-color:#788C9B"/>
</linearGradient>
<path class="st3" d="M172.4,78.5L172.4,78.5L172.4,78.5L172.4,78.5L172.4,78.5z"/>
<linearGradient id="SVGID_5_" gradientUnits="userSpaceOnUse" x1="18.7586" y1="-279.2455" x2="174.1986" y2="-279.2455" gradientTransform="matrix(1 0 0 -1 0 -200.78)">
	<stop  offset="0.15" style="stop-color:#CCD800"/>
	<stop  offset="0.48" style="stop-color:#B3D600"/>
	<stop  offset="0.97" style="stop-color:#788C9B"/>
</linearGradient>
<path class="st4" d="M172.4,78.5L172.4,78.5L172.4,78.5L172.4,78.5L172.4,78.5z"/>
<linearGradient id="SVGID_6_" gradientUnits="userSpaceOnUse" x1="69.2849" y1="-322.6367" x2="243.8911" y2="-321.6066" gradientTransform="matrix(1 0 0 -1 0 -200.78)">
	<stop  offset="0" style="stop-color:#CCD800"/>
	<stop  offset="0.48" style="stop-color:#B3D600"/>
	<stop  offset="0.8" style="stop-color:#788C9B"/>
</linearGradient>
<path class="st5" d="M93,156.7l-3.3,2.6c0,0-13.3,9.9-20.2,7.2c0,0,17.7,27,43,9.1l131-104.4c0,0-17.3-20.8-40-3.4l-5.5,4.3l0.6-0.7
	l-27.3,22L93,156.7z"/>
<linearGradient id="SVGID_7_" gradientUnits="userSpaceOnUse" x1="84.6365" y1="-384.0585" x2="96.9486" y2="-362.7322" gradientTransform="matrix(1 0 0 -1 0 -200.78)">
	<stop  offset="0" style="stop-color:#000000"/>
	<stop  offset="0.15" style="stop-color:#000000;stop-opacity:0.53"/>
	<stop  offset="1" style="stop-color:#000000;stop-opacity:0"/>
</linearGradient>
<path class="st6" d="M69,166.3c0,0,5,3.3,17.2-4.8l29.8,11.4l-11.3,6.7l-18.9,2.5l-11.8-5l-4.6-9.3L69,166.3z"/>
<linearGradient id="SVGID_8_" gradientUnits="userSpaceOnUse" x1="69.03" y1="-383.8145" x2="69.03" y2="-281.693" gradientTransform="matrix(1 0 0 -1 0 -200.78)">
	<stop  offset="0" style="stop-color:#3B649F"/>
	<stop  offset="0.22" style="stop-color:#4C7D91"/>
	<stop  offset="0.42" style="stop-color:#70AC6D"/>
	<stop  offset="0.75" style="stop-color:#9BC72C"/>
	<stop  offset="1" style="stop-color:#D8DC00"/>
</linearGradient>
<path class="st7" d="M76.5,173.9c-8.9-7.9-11.8-21.9-12-33.7s1.4-24.2-2.7-35.3C56.5,90.2,40.9,80,25.4,81c3.7,3.3,4.5,8.9,3.6,13.8
	s-3.2,9.4-4.7,14.1c-8.2,25.1,5.3,52,30.2,60.6c0,0-17.3-17.6-11.1-50.5c0,0,4.7,47.2,33.2,60.8c0,0,19.6,10.7,39.6-6.8
	C116.1,173,93.9,189.3,76.5,173.9z"/>
<linearGradient id="SVGID_9_" gradientUnits="userSpaceOnUse" x1="246.0117" y1="-384.8563" x2="311.7654" y2="-319.0926" gradientTransform="matrix(1 0 0 -1 0 -200.78)">
	<stop  offset="0" style="stop-color:#000000;stop-opacity:0"/>
	<stop  offset="0.85" style="stop-color:#000000;stop-opacity:0.56"/>
	<stop  offset="1" style="stop-color:#000000"/>
</linearGradient>
<path class="st8" d="M313.4,119.9c0,0-10,25.9-34.1,31.4c0,0-31,19.6-48.7,17.3l9.6,2.6l27.2,2.1l45.4-25.4L313.4,119.9z"/>
<linearGradient id="SVGID_10_" gradientUnits="userSpaceOnUse" x1="330.9878" y1="-347.3187" x2="245.2623" y2="-261.6032" gradientTransform="matrix(1 0 0 -1 0 -200.78)">
	<stop  offset="0" style="stop-color:#2C5992"/>
	<stop  offset="0.22" style="stop-color:#3A7285"/>
	<stop  offset="0.42" style="stop-color:#5AA366"/>
	<stop  offset="0.75" style="stop-color:#8AC03A"/>
	<stop  offset="1" style="stop-color:#D3D800"/>
</linearGradient>
<path class="st9" d="M340.1,90.4c-9.9-38.6-35-48.2-35-48.2L329.5,21l-72.1,27.7c19.9-0.4,40.5,19.4,40.5,19.4s22.6,19.9,16.1,47.5
	c-6.6,27.8-21,60.1-83.9,54.1c0,0,38.1,24.8,79.8-3.9S340.1,90.4,340.1,90.4z"/>
<linearGradient id="SVGID_11_" gradientUnits="userSpaceOnUse" x1="122.5336" y1="-251.2543" x2="122.5336" y2="-268.5355" gradientTransform="matrix(1 0 0 -1 0 -200.78)">
	<stop  offset="0" style="stop-color:#000000"/>
	<stop  offset="0.14" style="stop-color:#000000;stop-opacity:0.47"/>
	<stop  offset="1" style="stop-color:#000000;stop-opacity:0"/>
</linearGradient>
<path class="st10" d="M83.7,58.1c0,0,33.3-22.3,77.6,9.7l-51.6-8C109.8,59.8,95.9,54.5,83.7,58.1z"/>
<linearGradient id="SVGID_12_" gradientUnits="userSpaceOnUse" x1="127.464" y1="-304.0001" x2="58.4607" y2="-234.9967" gradientTransform="matrix(1 0 0 -1 0 -200.78)">
	<stop  offset="0" style="stop-color:#2C5992"/>
	<stop  offset="0.28" style="stop-color:#3A7285"/>
	<stop  offset="0.52" style="stop-color:#5AA366"/>
	<stop  offset="0.75" style="stop-color:#8AC03A"/>
	<stop  offset="1" style="stop-color:#D3D800"/>
</linearGradient>
<path class="st11" d="M162.2,68.5c0,0-39.1-32.4-78.8-10.3c0,0-10.6,0.2-24.8,13.9l-32.7-0.2c0,0,14.9-28.3,40.1-36.4
	s38.5-4.3,38.5-4.3S128.3,29.2,162.2,68.5z"/>
<path class="st12" d="M498.1,50.4v25.1h-6.5V50.4H498.1z"/>
<path class="st12" d="M503.4,75.5V50.4h6.5L522,65.8V50.4h6.5v25.1H522l-12.1-15.4v15.4H503.4z"/>
<path class="st12" d="M543.3,55.9v19.6h-6.5V55.9h-5.3v-5.5h17.2v5.5H543.3z"/>
<path class="st12" d="M565.8,55.9H558v4.2h7.4v5.5h-7.3V70h7.8v5.5h-14.3V50.4h14.3L565.8,55.9z"/>
<path class="st12" d="M591.4,75.5h-8.1l-6.2-9.7v9.7h-6.5V50.4h10.2c1.2,0,2.5,0.2,3.7,0.6c1.9,0.7,3.4,2.2,4.1,4.2
	c0.3,1,0.5,2,0.5,3c0.1,1.7-0.4,3.3-1.4,4.7c-1,1.3-2.5,2.1-4.1,2.4L591.4,75.5z M577,61.6h1.2c1.1,0.1,2.1-0.2,3-0.8
	c1.3-1.1,1.4-3,0.3-4.3c-0.1-0.1-0.2-0.2-0.3-0.3c-0.9-0.6-1.9-0.9-3-0.8H577V61.6z"/>
<path class="st12" d="M594.1,75.5V50.4h6.5l12.1,15.4V50.4h6.5v25.1h-6.5l-12.1-15.4v15.4H594.1z"/>
<path class="st12" d="M639.9,71.2h-9.3l-1.5,4.4h-7l9.6-25.1h7.1l9.6,25.1h-7L639.9,71.2z M638.2,66.2l-2.9-8.4l-2.9,8.4L638.2,66.2
	z"/>
<path class="st12" d="M659.7,55.9v19.6h-6.5V55.9h-5.4v-5.5h17.3v5.5H659.7z"/>
<path class="st12" d="M674.5,50.4v25.1H668V50.4H674.5z"/>
<path class="st12" d="M678.6,63c0-3.5,1.4-6.9,3.9-9.4c1.3-1.2,2.7-2.2,4.4-2.8c3.6-1.3,7.6-1.3,11.2,0c1.6,0.6,3.1,1.6,4.4,2.8
	c5.2,5,5.4,13.3,0.3,18.5c-1.3,1.4-2.9,2.4-4.7,3.1c-3.6,1.4-7.6,1.4-11.2,0C681.9,73.2,678.6,68.4,678.6,63z M685.5,63
	c0,1,0.2,1.9,0.6,2.8c0.4,0.8,0.9,1.6,1.5,2.2c0.6,0.6,1.4,1.1,2.2,1.4c1.7,0.7,3.7,0.7,5.4,0c1.7-0.7,3.1-2,3.8-3.6
	c0.8-1.8,0.8-3.8,0-5.5c-0.7-1.7-2.1-3-3.8-3.6c-1.7-0.7-3.7-0.7-5.4,0c-0.8,0.3-1.6,0.8-2.2,1.5c-0.6,0.6-1.2,1.4-1.5,2.2
	C685.6,61.1,685.5,62,685.5,63z"/>
<path class="st12" d="M710.6,75.5V50.4h6.5l12.1,15.4V50.4h6.5v25.1h-6.5l-12.1-15.4v15.4H710.6z"/>
<path class="st12" d="M756.4,71.2h-9.3l-1.5,4.4h-7l9.6-25.1h7.1l9.6,25.1h-7L756.4,71.2z M754.7,66.2l-2.9-8.4l-2.9,8.4H754.7z"/>
<path class="st12" d="M774.3,50.4V70h7.8v5.5h-14.4V50.4H774.3z"/>
<path class="st12" d="M514.8,84.9v5.6c-2.3-2.1-5.3-3.3-8.5-3.4c-3.1-0.1-6,1.2-8.1,3.5c-2.2,2.3-3.4,5.3-3.3,8.4
	c-0.1,3.1,1.1,6.1,3.3,8.3c2.1,2.2,5.1,3.5,8.2,3.4c1.5,0,2.9-0.2,4.2-0.8c0.7-0.3,1.4-0.7,2-1.1c0.8-0.5,1.5-1.1,2.2-1.7v5.7
	c-2.6,1.5-5.5,2.3-8.5,2.3c-4.3,0.1-8.4-1.6-11.5-4.7c-3.1-3-4.8-7.1-4.7-11.4c0-3.9,1.4-7.7,4-10.7c3.1-3.8,7.7-5.9,12.6-5.7
	C509.5,82.6,512.3,83.4,514.8,84.9z"/>
<path class="st12" d="M531.5,98.7c-0.1-4.3,1.7-8.4,4.8-11.4c3.1-3.1,7.3-4.8,11.6-4.7c9,0,16.3,7.3,16.3,16.3
	c0.1,4.3-1.7,8.5-4.8,11.5c-6.2,6.1-16.1,6.3-22.6,0.5C533.3,107.8,531.3,103.4,531.5,98.7z M536.2,98.8
	c-0.2,6.4,4.9,11.7,11.3,11.9c3.2,0.1,6.3-1.2,8.5-3.4c4.5-4.7,4.5-12.1,0-16.8c-4.6-4.5-11.9-4.5-16.5,0
	C537.4,92.6,536.2,95.6,536.2,98.8z"/>
<path class="st12" d="M581.5,114.5l6.6-33.7l10.8,24.3l11.2-24.3l5.9,33.7h-4.8l-3-18.9l-9.3,20.3l-9-20.4l-3.5,18.9H581.5z"/>
<path class="st12" d="M639.8,101.8v12.7h-4.7V83.2h5.4c2-0.1,4,0.1,5.9,0.5c1.4,0.4,2.6,1.1,3.6,2.1c1.8,1.7,2.8,4.2,2.7,6.7
	c0.1,2.6-0.9,5.1-2.9,6.8c-2.2,1.8-5,2.7-7.8,2.5L639.8,101.8z M639.8,97.4h1.8c4.3,0,6.5-1.7,6.5-5c0-3.2-2.2-4.8-6.7-4.8h-1.6
	L639.8,97.4z"/>
<path class="st12" d="M686.1,106.9h-13.4l-3.5,7.6h-5.1l15.5-33.3l15,33.3h-5.2L686.1,106.9z M684.2,102.5l-4.7-10.7l-4.9,10.7
	H684.2z"/>
<path class="st12" d="M711,114.5V81.1l22.9,23.9V83.2h4.7v33.2l-22.9-23.8v21.9H711z"/>
<path class="st12" d="M764.9,101l-10.2-17.8h5.4l7.2,12.5l7.2-12.5h5.4L769.6,101v13.5h-4.7V101z"/>
<path class="st12" d="M401.9,49.9c-0.5,3.4-0.6,5.7-0.6,12.4v32c0,6.3-1.7,11.1-5.3,14.7c-3.9,4-10.1,6.2-17.6,6.2
	c-8.4,0-14.6-2.4-18.9-7.1c-2.2-2.4-3.3-4.4-5.1-9l15-5.1c1.6,6,3.9,8.1,8.8,8.1c5.1,0,7.5-2.5,7.5-7.8V62.3
	c0.1-4.2-0.1-8.3-0.6-12.4L401.9,49.9z"/>
<path class="st12" d="M425.4,92.9c0.1,2,0.8,4,2,5.7c1.8,2.3,5.1,3.6,9,3.6c5.9,0,9.4-2.6,9.4-6.9c0.1-2.3-1.2-4.4-3.2-5.4
	c-1.6-0.8-3.5-1.3-11.5-3.2c-7-1.5-9.5-2.4-12.4-4.4c-4.8-3.3-7.6-8.9-7.4-14.7c0-11.8,9.5-19.2,24.6-19.2c9.7,0,17.2,3,21.3,8.7
	c1.9,2.5,2.8,4.8,3.8,9.2L444.8,68c-0.9-5-3.7-7.1-9.5-7.1c-4.7,0-8.1,2.5-8.1,6.1c0,2.2,1.1,3.8,3.6,4.9c1.5,0.7,1.5,0.7,10.6,2.5
	c5.8,1.2,9.5,2.5,12.4,4.4c5.5,3.4,8.3,8.6,8.3,15.7c0,5.8-1.8,10.7-5.4,14.1c-4.5,4.3-11.2,6.5-20.2,6.5c-6.5,0-13-1.4-17.1-3.8
	c-3.9-2.2-6.8-5.6-8.3-9.8c-0.9-2.3-1.4-4.7-1.7-7.1L425.4,92.9z"/>
<line class="st13" x1="473.6" y1="50.3" x2="473.6" y2="114.4"/>
<path class="st12" d="M380.7,157.8v-4.2H396v-18.5h-15.8v-4H399v-3.2h-18.7V124h-3.8v11.1h-14.2v18.5h14.6v4.2h-19.8v3.4h19.8v8h3.8
	v-8h20.1v-3.4H380.7z M366,138.2h26.3v4.7H366V138.2z M366,150.6v-4.8h26.3v4.8H366z"/>
<path class="st12" d="M423.1,153.4v9.7c0,4,1.4,5,6.7,5h9.9c4.6,0,5.7-1.7,6.2-8.3c-1.2-0.3-2.3-0.8-3.4-1.4c-0.2,5.5-0.6,6.3-3,6.3
	h-9.4c-2.7,0-3.2-0.2-3.2-1.6v-9.7L423.1,153.4z M427.6,151.5c3.7,2,7.1,4.4,10.2,7.2l2.6-2.5c-3.1-2.8-6.6-5.1-10.4-6.9
	L427.6,151.5z M445.3,153.9c2.8,3.8,5.1,7.9,6.7,12.3l3.5-1.6c-1.1-3.4-4.1-8.4-7-12.1L445.3,153.9z M416.8,153.2
	c-1.1,3.8-2.9,8.7-5.4,11.7l3.3,1.8c2.5-3.2,4.2-8.3,5.4-12.4L416.8,153.2z M416.1,126.3v22.1h34.4v-22.1L416.1,126.3z M419.6,129.5
	h12v6.2h-12V129.5z M419.6,138.8h12v6.3h-12V138.8z M446.8,145.1h-11.7v-6.3h11.7V145.1z M446.8,135.7h-11.7v-6.2h11.7V135.7z"/>
<path class="st12" d="M495.4,132.1c1.9,0.9,3.7,2.1,5.3,3.5l1.8-2c-1.6-1.4-3.4-2.5-5.4-3.3L495.4,132.1z M476.7,142v9.5h10.9V142
	H476.7z M484.9,149.3h-5.6v-5h5.6V149.3z M489.4,156.2c-5.1,1-10.3,2.1-14.4,2.8l-0.5-2.8c3.8-0.6,9.3-1.6,14.8-2.6L489.4,156.2z
	 M504.1,155c-0.6,5.4-2.4,7.4-5,6.4c-2.1-0.5-3.8-2.2-5.1-4.8c-1.9,2.2-4.1,4.1-6.5,5.6c-0.7-0.8-1.4-1.6-2.2-2.4
	c2.8-1.6,5.4-3.8,7.4-6.4c-1.4-4.8-2.3-9.6-2.7-14.6h-15.2v-2.8h14.9c-0.1-1.7-0.3-3.5-0.4-5.2h3.1c0.1,1.8,0.2,3.5,0.3,5.2h10.8
	v2.8h-10.5c0.3,3.8,0.9,7.6,1.8,11.4c1.6-2.8,2.9-5.9,3.6-9.1l3,0.6c-1.1,4.3-2.9,8.4-5.5,12.1c1.1,2.6,2.4,4.3,4,4.6
	c0.7,0.1,1.2-1.9,1.5-5.1C502.3,154.1,503.1,154.6,504.1,155L504.1,155z M468.8,126.4v43h3.5V167h33.8v2.3h3.7v-43L468.8,126.4z
	 M472.3,163.7v-34h33.8v34H472.3z"/>
<path class="st12" d="M537.4,151.5v3.1h25.8v-3.1H537.4z M556.1,158.3c2.5,2.7,4.6,5.8,6.4,9.1l2.9-1.8c-1.8-3.2-4-6.2-6.5-8.8
	L556.1,158.3z M548.5,153v12.3c0,0.5-0.2,0.7-0.8,0.7s-2.7,0-5.1,0c0.5,1,0.9,2,1.1,3.1c3.2,0,5.3,0,6.6-0.5s1.7-1.4,1.7-3.2V153
	L548.5,153z M540,157c-1.4,3.2-3.5,6.1-6.1,8.5c1,0.5,1.9,1.1,2.8,1.8c2.7-2.8,5-6,6.6-9.5L540,157z M559.4,140.7
	c2.7-3.5,4.8-7.5,6.3-11.7l-2.2-1.2l-0.6,0.2h-8v2.8h6.5c-1,2.6-2.3,5.1-3.9,7.4c-2.5-4-4.2-8.5-5.2-13.1l-2.9,0.6
	c1.7,7.5,4.5,13.9,8.7,18.6h-15.6c3.8-4.4,6.5-9.7,7.7-15.4l-2.1-0.8l-0.6,0.1h-5.1c0.5-1.1,0.9-2.2,1.2-3.3l-3-0.7
	c-1.5,5.1-4.4,9.7-8.3,13.2c0.9,0.6,1.7,1.2,2.5,1.9c0.5-0.5,1-1,1.5-1.5c1.6,1.1,3.1,2.3,4.4,3.7c-1.8,2.2-4,4.1-6.5,5.5
	c0.8,0.7,1.5,1.6,2.1,2.5c2.1-1.2,3.9-2.8,5.6-4.5v2.3h16.5v-2.8c1.8,1.9,3.8,3.5,6.1,4.7c0.6-1,1.4-2,2.2-2.8
	C563.9,145.1,561.4,143.1,559.4,140.7z M546.4,130.8c-0.4,1.5-1,2.9-1.6,4.3c-1.4-1.1-2.8-2.1-4.4-2.9c0.3-0.5,0.5-0.9,0.8-1.4
	H546.4z M537.7,136.1c0.5-0.7,1-1.4,1.5-2.1c1.6,0.9,3.1,2,4.5,3.2c-0.5,0.8-1,1.6-1.5,2.4C540.8,138.4,539.3,137.2,537.7,136.1
	L537.7,136.1z M531.2,140.7c2.2,3.2,3.4,7.1,3.5,11c0,2.7-0.5,4.8-1.7,5.7c-0.6,0.5-1.4,0.8-2.2,0.8c-0.9,0.1-1.7,0.1-2.6,0.1
	c0-1.1-0.3-2.1-0.8-3.1c0.8,0,1.6,0,2.2,0c0.4,0,0.9-0.1,1.2-0.4c0.6-0.5,0.8-2,0.8-3.5c0-3.7-1.2-7.3-3.4-10.3
	c1.1-3.6,2.2-8.1,3-11.5h-5v39.6h-3.3v-43h9.5l0.5-0.2l2.3,1.3C534,131.5,532.5,136.7,531.2,140.7L531.2,140.7z"/>
<path class="st12" d="M620.6,133.9v-3.5h-25.1c0.7-1.8,1.4-3.7,1.9-5.5l-3.7-0.9c-0.6,2.2-1.3,4.3-2.1,6.4h-13.9v3.5H590
	c-3.2,6.4-7.7,12.4-13.5,16.4c0.9,0.9,1.7,1.8,2.4,2.9c3.1-2.2,5.8-4.8,8.2-7.8v23.8h3.6v-9.8h20.6v5.1c0,0.7-0.3,1-1.1,1
	s-3.9,0.1-7.2-0.1c0.6,1.1,1,2.3,1.2,3.6c4.2,0,7,0,8.5-0.6s2.1-1.7,2.1-3.9v-25H591c1.1-1.8,2.1-3.7,3-5.7L620.6,133.9z
	 M590.6,156.2v-5.1h20.6v5.1L590.6,156.2z M611.2,147.9h-20.6v-5h20.6V147.9z"/>
<path class="st12" d="M667.4,157.7c2.8-2,5.5-4.1,8-6.4l-2.9-2.1c-2,2.2-4.2,4.1-6.5,5.9c-1.1-2.3-2-4.6-2.7-7.1h10v-21.7h-22.1
	v37.6c-2.1,0.4-4,0.8-5.5,1l1.2,3.6c4.8-1.1,11.3-2.5,17.5-3.9l-0.2-3.2l-9.4,1.9V148h5.3c2.4,9.6,6.8,17.3,14.1,21
	c0.7-1.1,1.5-2.1,2.5-3C672.8,164.2,669.6,161.3,667.4,157.7z M669.7,129.5v6h-14.9v-6H669.7z M654.7,138.6h15v6.2h-15L654.7,138.6z
	"/>
<path class="st12" d="M648,151.2c0-3-0.9-6.5-4.9-10.6c1.8-3.9,3.9-8.9,5.4-13l-2.5-1.5l-0.5,0.2h-12.1v43h3.5v-39.7h7.2
	c-1.2,3.4-2.8,7.9-4.3,11.5c3.8,3.8,4.8,7.1,4.8,9.8c0,1.5-0.2,2.8-1.1,3.3c-0.5,0.3-1.1,0.5-1.7,0.5c-1.1,0.1-2.2,0-3.2-0.1
	c0.5,1,0.9,2.2,0.9,3.3c1.2,0.1,2.5,0.1,3.7,0c1-0.1,1.9-0.4,2.7-0.9C647.4,155.9,648,153.8,648,151.2z"/>
<path class="st12" d="M713.9,152.6c2.3,2.8,4.9,6.1,7.1,9.3c-7.4,0.4-15,0.7-21.6,0.9c3.5-6.5,6.7-13.1,9.5-19.9l-4.3-1.1
	c-2.5,7.3-5.6,14.3-9.3,21.1l-6.8,0.2l0.5,3.9c8.9-0.4,21.9-1.1,34.3-1.8c1,1.5,1.8,2.9,2.4,4.1l3.7-2c-3.5-5.8-7.5-11.3-12-16.4
	L713.9,152.6z"/>
<path class="st12" d="M703.6,126.7l-4.1-1.1c-2.8,7.2-7.7,14.3-13.1,18.7c1.2,0.8,2.4,1.7,3.5,2.6
	C695.8,141.1,700.5,134.2,703.6,126.7z"/>
<path class="st12" d="M731,143.7c-5.6-5.3-10.3-11.4-13.9-18.2l-3.7,1.5c4,7.2,8.9,13.8,14.5,19.9
	C728.8,145.7,729.8,144.6,731,143.7z"/>
<path class="st12" d="M768.7,160.2v-15.7h-23v19.3h3.6v-3.6L768.7,160.2z M765.1,147.8v9.2h-15.8v-9.2H765.1z"/>
<rect x="742.5" y="135.9" class="st12" width="29.5" height="3.3"/>
<path class="st12" d="M779.2,127.2h-36.9v3.5h35.5v32.9c0,0.9-0.3,1.2-1.2,1.2s-4.4,0.1-7.8,0c0.6,1.3,1.1,2.6,1.3,4
	c4.4,0,7.5,0,9.2-0.7s2.2-2,2.2-4.5v-36.4L779.2,127.2z"/>
</svg>
