<?xml version="1.0" encoding="utf-8"?>
<!-- Generator: Adobe Illustrator 25.3.1, SVG Export Plug-In . SVG Version: 6.00 Build 0)  -->
<svg version="1.1" id="圖層_1" xmlns="http://www.w3.org/2000/svg" xmlns:xlink="http://www.w3.org/1999/xlink" x="0px" y="0px"
	 viewBox="0 0 1024 204" style="enable-background:new 0 0 1024 204;" xml:space="preserve">
<style type="text/css">
	.st0{fill-rule:evenodd;clip-rule:evenodd;fill:url(#SVGID_1_);}
	.st1{fill:url(#SVGID_2_);}
	.st2{fill:url(#SVGID_3_);}
	.st3{fill:url(#SVGID_4_);}
	.st4{fill:url(#SVGID_5_);}
	.st5{opacity:0.83;fill:url(#SVGID_6_);enable-background:new    ;}
	.st6{fill-rule:evenodd;clip-rule:evenodd;fill:url(#SVGID_7_);}
	.st7{opacity:0.6;fill:url(#SVGID_8_);enable-background:new    ;}
	.st8{fill-rule:evenodd;clip-rule:evenodd;fill:url(#SVGID_9_);}
	.st9{fill:#676767;}
	.st10{fill:none;stroke:#676767;stroke-miterlimit:10;}
</style>
<linearGradient id="SVGID_1_" gradientUnits="userSpaceOnUse" x1="184.7" y1="-270.9285" x2="341.0571" y2="-270.9285" gradientTransform="matrix(1 0 0 -1 0 -170.78)">
	<stop  offset="0.2" style="stop-color:#788C9B"/>
	<stop  offset="0.52" style="stop-color:#B3D600"/>
	<stop  offset="1" style="stop-color:#CCD800"/>
</linearGradient>
<path class="st0" d="M322.4,55.9c-3-3.7-6.5-6.9-10.4-9.6l-0.1-0.1l0,0c-2.3-1.6-4.9-3-7.6-3.9L329.4,21l-72,27.7
	c16.8,0,32.9,12.6,39.9,18.9l0,0l0.5,0.4c2,1.8,3.1,3,3.1,3l0.1-0.1c10.8,10.7,15.8,26,13.5,41c-4.9,35.3-47.2,53.3-75.8,31.9
	c-6.2-4.6-11.6-10.5-17.1-16c-4.8-4.8-11.7-12.1-16.5-17.2c-9.2,8.8-15.9,13.2-20.4,17.6c7.4,7.5,20.6,20.5,28,28.1
	c9.3,9.7,21.1,16.7,34,20.3c30.1,8.6,64.4-3.9,81.5-29.9C347.8,117,344.3,80.5,322.4,55.9z"/>
<linearGradient id="SVGID_2_" gradientUnits="userSpaceOnUse" x1="18.7586" y1="-234.5112" x2="174.1986" y2="-234.5112" gradientTransform="matrix(1 0 0 -1 0 -170.78)">
	<stop  offset="0.15" style="stop-color:#CCD800"/>
	<stop  offset="0.48" style="stop-color:#B3D600"/>
	<stop  offset="0.97" style="stop-color:#788C9B"/>
</linearGradient>
<path class="st1" d="M172.4,78.5L172.4,78.5L172.4,78.5L172.4,78.5c-8.3-8.3-17.8-18-26-25.9c-21.2-20.6-46.4-27-74.6-19
	C52,39.3,35.4,53.2,26.4,71.8h32.3c0.2-0.3,0.5-0.5,0.8-0.8c16.3-16.3,42-19,61-5.6C126.9,70,132.3,76,138,81.5
	c3.8,3.7,12.1,12,15.6,15.7l20.6-16.9C173.6,79.7,173,79.1,172.4,78.5z"/>
<linearGradient id="SVGID_3_" gradientUnits="userSpaceOnUse" x1="69.2364" y1="-292.6013" x2="243.7926" y2="-291.5715" gradientTransform="matrix(1 0 0 -1 0 -170.78)">
	<stop  offset="0" style="stop-color:#CCD800"/>
	<stop  offset="0.48" style="stop-color:#B3D600"/>
	<stop  offset="0.8" style="stop-color:#788C9B"/>
</linearGradient>
<path class="st2" d="M93,156.7l-3.3,2.6c0,0-13.3,9.9-20.2,7.2c0,0,17.7,27,43,9.1l131-104.4c0,0-17.3-20.8-40-3.4l-5.5,4.3l0.6-0.7
	l-27.3,22L93,156.7z"/>
<linearGradient id="SVGID_4_" gradientUnits="userSpaceOnUse" x1="84.6115" y1="-354.0441" x2="96.9292" y2="-332.708" gradientTransform="matrix(1 0 0 -1 0 -170.78)">
	<stop  offset="0" style="stop-color:#000000"/>
	<stop  offset="0.15" style="stop-color:#000000;stop-opacity:0.53"/>
	<stop  offset="1" style="stop-color:#000000;stop-opacity:0"/>
</linearGradient>
<path class="st3" d="M69,166.3c0,0,5,3.3,17.2-4.8l29.8,11.4l-11.3,6.7l-18.9,2.5l-11.8-5l-4.6-9.3L69,166.3z"/>
<linearGradient id="SVGID_5_" gradientUnits="userSpaceOnUse" x1="69.0507" y1="-353.8183" x2="69.0507" y2="-251.7124" gradientTransform="matrix(1 0 0 -1 0 -170.78)">
	<stop  offset="0" style="stop-color:#3B649F"/>
	<stop  offset="0.22" style="stop-color:#4C7D91"/>
	<stop  offset="0.42" style="stop-color:#70AC6D"/>
	<stop  offset="0.75" style="stop-color:#9BC72C"/>
	<stop  offset="1" style="stop-color:#D8DC00"/>
</linearGradient>
<path class="st4" d="M76.5,173.9c-8.9-7.9-11.8-21.9-12-33.7s1.4-24.2-2.7-35.3C56.5,90.2,40.9,80,25.4,81c3.7,3.3,4.5,8.9,3.6,13.8
	s-3.2,9.4-4.7,14.1c-8.2,25.1,5.3,52,30.2,60.6c0,0-17.3-17.6-11.1-50.5c0,0,4.7,47.2,33.2,60.8c0,0,19.6,10.7,39.6-6.8
	C116.1,173,93.9,189.3,76.5,173.9z"/>
<linearGradient id="SVGID_6_" gradientUnits="userSpaceOnUse" x1="245.9781" y1="-354.7558" x2="311.7218" y2="-289.0021" gradientTransform="matrix(1 0 0 -1 0 -170.78)">
	<stop  offset="0" style="stop-color:#000000;stop-opacity:0"/>
	<stop  offset="0.85" style="stop-color:#000000;stop-opacity:0.56"/>
	<stop  offset="1" style="stop-color:#000000"/>
</linearGradient>
<path class="st5" d="M313.4,119.9c0,0-10,25.9-34.1,31.4c0,0-31,19.6-48.7,17.3l9.6,2.6l27.2,2.1l45.4-25.4L313.4,119.9z"/>
<linearGradient id="SVGID_7_" gradientUnits="userSpaceOnUse" x1="331.0241" y1="-317.3481" x2="245.2737" y2="-231.6077" gradientTransform="matrix(1 0 0 -1 0 -170.78)">
	<stop  offset="0" style="stop-color:#2C5992"/>
	<stop  offset="0.22" style="stop-color:#3A7285"/>
	<stop  offset="0.42" style="stop-color:#5AA366"/>
	<stop  offset="0.75" style="stop-color:#8AC03A"/>
	<stop  offset="1" style="stop-color:#D3D800"/>
</linearGradient>
<path class="st6" d="M340.1,90.4c-9.9-38.6-35-48.2-35-48.2L329.5,21l-72.1,27.7c19.9-0.4,40.5,19.4,40.5,19.4S320.5,88,314,115.6
	c-6.6,27.8-21,60.1-83.9,54.1c0,0,38.1,24.8,79.8-3.9S340.1,90.4,340.1,90.4z"/>
<linearGradient id="SVGID_8_" gradientUnits="userSpaceOnUse" x1="122.5" y1="-221.2543" x2="122.5" y2="-238.5355" gradientTransform="matrix(1 0 0 -1 0 -170.78)">
	<stop  offset="0" style="stop-color:#000000"/>
	<stop  offset="0.14" style="stop-color:#000000;stop-opacity:0.47"/>
	<stop  offset="1" style="stop-color:#000000;stop-opacity:0"/>
</linearGradient>
<path class="st7" d="M83.7,58.1c0,0,33.3-22.3,77.6,9.7l-51.6-8C109.8,59.8,95.9,54.5,83.7,58.1z"/>
<linearGradient id="SVGID_9_" gradientUnits="userSpaceOnUse" x1="127.4607" y1="-274.0192" x2="58.5138" y2="-205.0722" gradientTransform="matrix(1 0 0 -1 0 -170.78)">
	<stop  offset="0" style="stop-color:#2C5992"/>
	<stop  offset="0.28" style="stop-color:#3A7285"/>
	<stop  offset="0.52" style="stop-color:#5AA366"/>
	<stop  offset="0.75" style="stop-color:#8AC03A"/>
	<stop  offset="1" style="stop-color:#D3D800"/>
</linearGradient>
<path class="st8" d="M162.2,68.5c0,0-39.1-32.4-78.8-10.3c0,0-10.6,0.2-24.8,13.9l-32.7-0.2c0,0,14.9-28.3,40.1-36.4
	s38.5-4.3,38.5-4.3S128.3,29.2,162.2,68.5z"/>
<g>
	<g>
		<path class="st9" d="M585.7,61.9v36.9h-9.6V61.9H585.7z"/>
		<path class="st9" d="M593.3,98.8V61.9h9.6l17.8,22.7V61.9h9.6v36.9h-9.6l-17.8-22.6v22.6C602.9,98.8,593.3,98.8,593.3,98.8z"/>
		<path class="st9" d="M652,70.1v28.8h-9.6V70.1h-7.9V62h25.3v8.1H652z"/>
		<path class="st9" d="M685,70.1h-11.4v6.2h10.7v8.1h-10.7v6.4H685v8.1h-21V61.9h21V70.1z"/>
		<path class="st9" d="M722.7,98.8h-11.9l-9.1-14.1v14.1h-9.6V61.9H707c2,0,3.8,0.3,5.4,1c1.5,0.6,2.8,1.4,3.8,2.4
			c1,1.1,1.7,2.2,2.2,3.6s0.7,2.9,0.7,4.4c0,2.8-0.6,5.1-2,6.8c-1.4,1.7-3.4,3-6,3.5L722.7,98.8z M701.5,78.4h1.8
			c1.9,0,3.3-0.4,4.4-1.2c1-0.7,1.5-1.9,1.5-3.4c0-1.5-0.5-2.6-1.5-3.4c-1.1-0.7-2.4-1.2-4.4-1.2h-1.8V78.4z"/>
		<path class="st9" d="M726.6,98.8V61.9h9.6L754,84.5V61.9h9.6v36.9H754l-17.8-22.6v22.6C736.2,98.8,726.6,98.8,726.6,98.8z"/>
		<path class="st9" d="M794,92.4h-13.7l-2.2,6.4h-10.2l14-36.9h10.4l14,36.9h-10.2L794,92.4z M791.4,85.1l-4.3-12.2l-4.3,12.2H791.4
			z"/>
		<path class="st9" d="M823,70.1v28.8h-9.6V70.1h-7.9V62h25.3v8.1H823z"/>
		<path class="st9" d="M844.7,61.9v36.9h-9.6V61.9H844.7z"/>
		<path class="st9" d="M850.8,80.4c0-2.8,0.5-5.3,1.5-7.7c1.1-2.3,2.4-4.5,4.3-6.2c1.8-1.8,3.9-3.2,6.5-4.1c2.4-1,5.2-1.5,8.3-1.5
			c3,0,5.7,0.5,8.2,1.5c2.6,1,4.7,2.3,6.5,4.1c1.8,1.8,3.2,3.8,4.3,6.2c1.1,2.3,1.5,4.9,1.5,7.7s-0.5,5.3-1.5,7.7
			c-1.1,2.3-2.4,4.5-4.3,6.2c-1.8,1.8-3.9,3.2-6.5,4.1c-2.6,1-5.2,1.5-8.2,1.5c-3,0-5.7-0.5-8.3-1.5c-2.4-1-4.7-2.3-6.5-4.1
			c-1.8-1.8-3.2-3.8-4.3-6.2C851.3,85.7,850.8,83.1,850.8,80.4z M860.8,80.4c0,1.5,0.3,2.9,0.9,4c0.5,1.3,1.3,2.3,2.2,3.2
			c1,1,2,1.6,3.3,2.1c1.3,0.5,2.6,0.7,3.9,0.7c1.4,0,2.8-0.2,3.9-0.7c1.3-0.5,2.3-1.2,3.3-2.1c1-1,1.7-2,2.2-3.2
			c0.5-1.3,0.9-2.6,0.9-4s-0.3-2.9-0.9-4c-0.5-1.3-1.3-2.3-2.2-3.2c-1-1-2-1.6-3.3-2.1c-1.3-0.5-2.6-0.7-3.9-0.7
			c-1.4,0-2.8,0.2-3.9,0.7c-1.3,0.5-2.3,1.2-3.3,2.1c-1,1-1.7,2-2.2,3.2C861.1,77.5,860.8,78.9,860.8,80.4z"/>
		<path class="st9" d="M897.7,98.8V61.9h9.6L925,84.5V61.9h9.6v36.9H925l-17.8-22.6v22.6C907.3,98.8,897.7,98.8,897.7,98.8z"/>
		<path class="st9" d="M965,92.4h-13.7l-2.2,6.4h-10.2l14-36.9h10.4l14,36.9h-10.2L965,92.4z M962.5,85.1l-4.3-12.2L954,85.1H962.5z
			"/>
		<path class="st9" d="M991.2,61.9v28.8h11.5v8.1h-21.1V61.9H991.2z"/>
	</g>
	<g>
		<g>
			<path class="st9" d="M610.1,112.6v8.2c-4-3.4-8.2-5-12.4-5c-4.7,0-8.7,1.7-11.9,5.1c-3.3,3.4-4.9,7.6-4.9,12.3s1.6,8.9,4.9,12.2
				s7.2,5,12,5c2.4,0,4.6-0.4,6.3-1.2c1-0.4,1.9-1,3-1.6c1.1-0.6,2.1-1.5,3.2-2.4v8.4c-3.9,2.2-8.2,3.4-12.6,3.4
				c-6.6,0-12.2-2.3-16.8-6.9c-4.7-4.6-6.9-10.2-6.9-16.7c0-5.9,1.9-11.1,5.9-15.6c4.8-5.6,11-8.4,18.5-8.4
				C602.3,109.2,606.2,110.3,610.1,112.6z"/>
			<path class="st9" d="M634.6,132.9c0-6.5,2.3-12,7.1-16.7c4.7-4.7,10.4-7,17-7c6.6,0,12.2,2.3,16.9,7c4.7,4.7,7,10.3,7,16.9
				c0,6.6-2.3,12.2-7.1,16.8c-4.8,4.7-10.5,6.9-17.2,6.9c-6,0-11.3-2-16.1-6.2C637.2,146.2,634.6,140.3,634.6,132.9z M641.6,132.9
				c0,5.1,1.7,9.3,5.1,12.6c3.4,3.3,7.3,4.9,11.8,4.9c4.8,0,8.9-1.7,12.2-5c3.3-3.4,5-7.4,5-12.3c0-4.9-1.6-9-4.9-12.3
				c-3.3-3.3-7.3-5-12.1-5c-4.8,0-8.8,1.7-12.1,5C643.2,124.1,641.6,128.1,641.6,132.9z"/>
			<path class="st9" d="M708.2,156.1l9.7-49.5l15.9,35.7l16.4-35.7l8.7,49.5h-7.2l-4.5-27.8l-13.6,29.9l-13.2-29.9l-5,27.8H708.2z"
				/>
			<path class="st9" d="M793.8,137.4v18.7h-6.9v-46.1h7.9c3.8,0,6.8,0.3,8.7,0.9c2,0.5,3.7,1.6,5.2,3.1c2.7,2.6,3.9,5.9,3.9,9.8
				c0,4.3-1.4,7.6-4.3,10c-2.9,2.4-6.6,3.7-11.4,3.7h-3.2V137.4z M793.8,131h2.6c6.4,0,9.6-2.4,9.6-7.3c0-4.8-3.3-7.1-9.9-7.1h-2.3
				V131H793.8z"/>
			<path class="st9" d="M861.8,145h-19.8l-5.1,11.2h-7.4l22.8-48.9l22,48.9h-7.6L861.8,145z M859,138.4l-6.8-15.6l-7.1,15.6H859z"/>
			<path class="st9" d="M898.3,156.1V107l33.6,35.1v-31.9h6.9V159l-33.6-35.1v32.2H898.3z"/>
			<path class="st9" d="M977.5,136.2l-15-26.2h8l10.5,18.4l10.5-18.4h8l-15.1,26.2v19.9h-6.9L977.5,136.2L977.5,136.2z"/>
		</g>
	</g>
	<g>
		<g>
			<path class="st9" d="M444.3,61.1c-0.7,5-0.9,8.3-0.9,18.1v47c0,9.3-2.4,16.4-7.8,21.6c-5.7,5.9-14.9,9.1-26,9.1
				c-12.2,0-21.5-3.5-27.9-10.4c-3.3-3.6-4.9-6.4-7.4-13.2l21.9-7.6c2.3,8.8,5.7,11.9,13,11.9c7.6,0,11.1-3.7,11.1-11.5V79.4
				c0-9.6-0.2-13.1-0.9-18.3C419.5,61.1,444.3,61.1,444.3,61.1z"/>
			<path class="st9" d="M478.9,124.3c0.4,4,1.3,6.1,3,8.3c2.7,3.4,7.4,5.3,13.2,5.3c8.7,0,13.8-3.8,13.8-10.1c0-3.5-1.8-6.5-4.7-7.9
				c-2.3-1.2-5.2-1.9-16.9-4.6c-10.3-2.2-13.9-3.6-18.1-6.5c-7.1-5-11-12.6-11-21.6c0-17.3,13.9-28.3,36.2-28.3
				c14.3,0,25.2,4.4,31.3,12.9c2.8,3.7,4.1,7.1,5.6,13.5l-23.8,2.6c-1.4-7.3-5.4-10.3-13.9-10.3c-6.9,0-11.9,3.7-11.9,8.9
				c0,3.2,1.7,5.5,5.3,7.2c2.2,1.1,2.2,1.1,15.5,3.7c8.5,1.8,13.9,3.7,18.3,6.4c8.1,5.1,12.1,12.7,12.1,23c0,8.4-2.7,15.6-7.9,20.7
				c-6.5,6.3-16.5,9.6-29.6,9.6c-9.6,0-19-2-25.1-5.5c-5.6-3.2-9.8-8-12.1-14.5c-1.2-2.7-1.7-5.3-2.4-10.4L478.9,124.3z"/>
		</g>
	</g>
	<line class="st10" x1="549.6" y1="61.8" x2="549.6" y2="155.9"/>
</g>
</svg>
