<?xml version="1.0" encoding="UTF-8"?>
<svg id="_圖層_1" data-name="圖層 1" xmlns="http://www.w3.org/2000/svg" xmlns:xlink="http://www.w3.org/1999/xlink" viewBox="0 0 803.83 203.39">
  <defs>
    <style>
      .cls-1 {
        fill: url(#_未命名漸層_80);
        opacity: .83;
      }

      .cls-2 {
        fill: url(#_未命名漸層_41);
        opacity: .6;
      }

      .cls-3 {
        fill: #676767;
      }

      .cls-4 {
        fill: url(#_未命名漸層_157-2);
      }

      .cls-5 {
        fill: url(#_未命名漸層_157-4);
      }

      .cls-6 {
        fill: url(#_未命名漸層_157-3);
      }

      .cls-7 {
        fill: url(#_未命名漸層_9);
      }

      .cls-8 {
        fill: url(#_未命名漸層_135);
      }

      .cls-9 {
        fill: url(#_未命名漸層_131);
      }

      .cls-10 {
        fill: url(#_未命名漸層_157);
      }

      .cls-11 {
        fill: url(#_未命名漸層_7);
      }

      .cls-11, .cls-12, .cls-13 {
        fill-rule: evenodd;
      }

      .cls-12 {
        fill: url(#_未命名漸層_120);
      }

      .cls-13 {
        fill: url(#_未命名漸層_142);
      }
    </style>
    <linearGradient id="_未命名漸層_7" data-name="未命名漸層 7" x1="185.44" y1="99.88" x2="341.64" y2="99.88" gradientUnits="userSpaceOnUse">
      <stop offset=".2" stop-color="#788c9b"/>
      <stop offset=".52" stop-color="#b3d600"/>
      <stop offset="1" stop-color="#ccd800"/>
    </linearGradient>
    <linearGradient id="_未命名漸層_157" data-name="未命名漸層 157" x1="172.95" y1="78.13" x2="173.03" y2="78.13" gradientUnits="userSpaceOnUse">
      <stop offset=".15" stop-color="#ccd800"/>
      <stop offset=".48" stop-color="#b3d600"/>
      <stop offset=".97" stop-color="#788c9b"/>
    </linearGradient>
    <linearGradient id="_未命名漸層_157-2" data-name="未命名漸層 157" x1="19.36" y1="63.44" x2="174.8" y2="63.44" xlink:href="#_未命名漸層_157"/>
    <linearGradient id="_未命名漸層_157-3" data-name="未命名漸層 157" y1="78.16" y2="78.16" xlink:href="#_未命名漸層_157"/>
    <linearGradient id="_未命名漸層_157-4" data-name="未命名漸層 157" x1="19.36" y1="78.16" x2="174.8" y2="78.16" xlink:href="#_未命名漸層_157"/>
    <linearGradient id="_未命名漸層_131" data-name="未命名漸層 131" x1="69.89" y1="121.56" x2="244.49" y2="120.53" gradientUnits="userSpaceOnUse">
      <stop offset="0" stop-color="#ccd800"/>
      <stop offset=".48" stop-color="#b3d600"/>
      <stop offset=".8" stop-color="#788c9b"/>
    </linearGradient>
    <linearGradient id="_未命名漸層_9" data-name="未命名漸層 9" x1="85.25" y1="182.98" x2="97.57" y2="161.64" gradientUnits="userSpaceOnUse">
      <stop offset="0" stop-color="#000"/>
      <stop offset=".15" stop-color="#000" stop-opacity=".53"/>
      <stop offset="1" stop-color="#000" stop-opacity="0"/>
    </linearGradient>
    <linearGradient id="_未命名漸層_135" data-name="未命名漸層 135" x1="69.62" y1="182.73" x2="69.62" y2="80.61" gradientUnits="userSpaceOnUse">
      <stop offset="0" stop-color="#3b649f"/>
      <stop offset=".22" stop-color="#4c7d91"/>
      <stop offset=".42" stop-color="#70ac6d"/>
      <stop offset=".75" stop-color="#9bc72c"/>
      <stop offset="1" stop-color="#d8dc00"/>
    </linearGradient>
    <linearGradient id="_未命名漸層_80" data-name="未命名漸層 80" x1="246.64" y1="183.77" x2="312.4" y2="118" gradientUnits="userSpaceOnUse">
      <stop offset="0" stop-color="#000" stop-opacity="0"/>
      <stop offset=".85" stop-color="#000" stop-opacity=".56"/>
      <stop offset="1" stop-color="#000"/>
    </linearGradient>
    <linearGradient id="_未命名漸層_120" data-name="未命名漸層 120" x1="331.58" y1="146.24" x2="245.85" y2="60.52" gradientUnits="userSpaceOnUse">
      <stop offset="0" stop-color="#2c5992"/>
      <stop offset=".22" stop-color="#3a7285"/>
      <stop offset=".42" stop-color="#5aa366"/>
      <stop offset=".75" stop-color="#8ac03a"/>
      <stop offset="1" stop-color="#d3d800"/>
    </linearGradient>
    <linearGradient id="_未命名漸層_41" data-name="未命名漸層 41" x1="123.13" y1="50.17" x2="123.13" y2="67.45" gradientUnits="userSpaceOnUse">
      <stop offset="0" stop-color="#000"/>
      <stop offset=".14" stop-color="#000" stop-opacity=".47"/>
      <stop offset="1" stop-color="#000" stop-opacity="0"/>
    </linearGradient>
    <linearGradient id="_未命名漸層_142" data-name="未命名漸層 142" x1="128.06" y1="102.92" x2="59.05" y2="33.91" gradientUnits="userSpaceOnUse">
      <stop offset="0" stop-color="#2c5992"/>
      <stop offset=".28" stop-color="#3a7285"/>
      <stop offset=".52" stop-color="#5aa366"/>
      <stop offset=".75" stop-color="#8ac03a"/>
      <stop offset="1" stop-color="#d3d800"/>
    </linearGradient>
  </defs>
  <g>
    <path class="cls-11" d="M322.95,55.6c-3.55-4.43-7.26-7.53-10.39-9.64-.03-.02-.06-.05-.09-.08h0c-4.36-2.92-7.55-3.92-7.55-3.92l25.15-21.31-72.06,27.71c16.81,.04,32.94,12.64,39.93,18.9v.04c.18,.15,.36,.3,.54,.45,1.97,1.8,3.09,2.97,3.09,2.97l.12-.06c10.59,10.52,15.7,25.4,13.55,40.99-4.89,35.37-47.18,53.32-75.77,31.92-6.21-4.65-11.55-10.49-17.08-15.99-4.81-4.78-11.7-12.11-16.52-17.22-9.21,8.8-15.89,13.21-20.41,17.62,7.45,7.46,20.59,20.53,27.97,28.06,9.56,9.76,20.78,16.55,33.96,20.34,30.06,8.64,64.4-3.87,81.48-29.9,19.53-29.78,16.02-66.33-5.9-90.88Z"/>
    <g>
      <path class="cls-10" d="M173.03,78.07l-.08,.05s.05,.05,.08,.08v-.13Z"/>
      <path class="cls-4" d="M173.03,78.2h0s-.05-.05-.08-.08h0c-8.23-8.23-17.76-17.89-25.89-25.78-21.19-20.57-46.39-27.01-74.57-19.01-20.51,5.82-36.58,20.14-45.45,38.21H59.34c.25-.26,.49-.53,.75-.78,16.3-16.35,42.05-18.99,60.95-5.59,6.41,4.55,11.81,10.56,17.5,16.07,3.82,3.7,12.08,12.04,15.62,15.66l20.64-16.92c-.58-.58-1.18-1.18-1.78-1.78Z"/>
      <path class="cls-6" d="M173.03,78.2h0s-.05-.05-.08-.08h0s.05,.05,.08,.08Z"/>
      <path class="cls-5" d="M173.03,78.2h0s-.05-.05-.08-.08h0s.05,.05,.08,.08Z"/>
    </g>
    <path class="cls-9" d="M93.57,156.41l-3.27,2.64s-13.27,9.93-20.15,7.2c0,0,17.67,27.04,42.99,9.11L244.2,70.93s-17.32-20.84-40-3.42l-5.46,4.36,.57-.69-27.33,22.04-78.39,63.2Z"/>
    <path class="cls-7" d="M69.57,166.03s5.01,3.34,17.25-4.81l29.85,11.45-11.33,6.72-18.88,2.49-11.75-4.99-4.63-9.26-.51-1.6Z"/>
    <path class="cls-8" d="M77.14,173.6c-8.89-7.88-11.83-21.85-11.96-33.73-.13-11.88,1.42-24.17-2.67-35.32-5.38-14.64-20.98-24.84-36.55-23.88,3.72,3.3,4.52,8.91,3.62,13.8-.89,4.89-3.17,9.41-4.72,14.13-3.88,11.89-2.9,25.29,2.69,36.48,5.58,11.19,15.69,20.04,27.52,24.09,0,0-17.34-17.6-11.13-50.49,0,0,4.65,47.16,33.2,60.82,0,0,19.55,10.71,39.56-6.83,0,0-22.19,16.34-39.56,.93Z"/>
    <path class="cls-1" d="M314.03,119.64s-10.05,25.91-34.09,31.43c0,0-31.04,19.57-48.7,17.31l9.59,2.55,27.25,2.14,45.41-25.38,.53-28.05Z"/>
    <path class="cls-12" d="M340.69,90.13c-9.88-38.63-35.01-48.25-35.01-48.25l24.38-21.22-72.06,27.71c19.91-.38,40.47,19.39,40.47,19.39,0,0,22.63,19.88,16.06,47.5-6.62,27.82-21,60.09-83.88,54.09,0,0,38.06,24.82,79.85-3.93,41.79-28.75,30.2-75.3,30.2-75.3Z"/>
    <path class="cls-2" d="M84.31,57.75s33.3-22.35,77.65,9.71l-51.56-8.01s-13.91-5.27-26.09-1.69Z"/>
    <path class="cls-13" d="M162.78,68.2s-39.1-32.37-78.81-10.34c0,0-10.55,.16-24.82,13.86l-32.68-.21s14.89-28.34,40.13-36.41c25.24-8.07,38.48-4.34,38.48-4.34,0,0,23.79-1.86,57.71,37.44Z"/>
  </g>
  <g>
    <g>
      <path class="cls-3" d="M498.93,50.07v25.17h-6.54v-25.17h6.54Z"/>
      <path class="cls-3" d="M504.2,75.24v-25.17h6.54l12.08,15.39v-15.39h6.51v25.17h-6.51l-12.08-15.39v15.39h-6.54Z"/>
      <path class="cls-3" d="M544.16,55.61v19.63h-6.54v-19.63h-5.37v-5.54h17.29v5.54h-5.37Z"/>
      <path class="cls-3" d="M566.76,55.61h-7.78v4.21h7.34v5.54h-7.34v4.34h7.78v5.54h-14.32v-25.17h14.32v5.54Z"/>
      <path class="cls-3" d="M592.39,75.24h-8.14l-6.24-9.68v9.68h-6.54v-25.17h10.18c1.4,0,2.63,.21,3.67,.62,1.05,.41,1.91,.97,2.59,1.69,.68,.71,1.19,1.54,1.54,2.47,.34,.93,.52,1.94,.52,3,0,1.91-.46,3.47-1.39,4.66-.92,1.19-2.29,2-4.09,2.42l7.91,10.31Zm-14.39-13.92h1.24c1.29,0,2.28-.27,2.97-.8,.69-.53,1.03-1.3,1.03-2.3s-.35-1.77-1.03-2.3c-.69-.53-1.68-.8-2.97-.8h-1.24v6.21Z"/>
      <path class="cls-3" d="M595.13,75.24v-25.17h6.54l12.08,15.39v-15.39h6.51v25.17h-6.51l-12.08-15.39v15.39h-6.54Z"/>
      <path class="cls-3" d="M641.03,70.86h-9.35l-1.5,4.37h-6.98l9.58-25.17h7.14l9.58,25.17h-6.98l-1.5-4.37Zm-1.74-4.97l-2.94-8.38-2.94,8.38h5.88Z"/>
      <path class="cls-3" d="M660.82,55.61v19.63h-6.54v-19.63h-5.37v-5.54h17.29v5.54h-5.37Z"/>
      <path class="cls-3" d="M675.64,50.07v25.17h-6.54v-25.17h6.54Z"/>
      <path class="cls-3" d="M679.78,62.65c0-1.87,.34-3.61,1.03-5.22,.69-1.61,1.65-3.02,2.87-4.22,1.22-1.2,2.69-2.14,4.39-2.82,1.7-.68,3.58-1.02,5.62-1.02s3.89,.34,5.61,1.02c1.71,.68,3.19,1.62,4.42,2.82,1.23,1.2,2.2,2.61,2.89,4.22,.69,1.61,1.03,3.36,1.03,5.22s-.35,3.61-1.03,5.22c-.69,1.61-1.65,3.02-2.89,4.22-1.24,1.2-2.71,2.14-4.42,2.82s-3.58,1.02-5.61,1.02-3.92-.34-5.62-1.02c-1.7-.68-3.17-1.62-4.39-2.82-1.22-1.2-2.18-2.61-2.87-4.22-.69-1.61-1.03-3.36-1.03-5.22Zm6.84,0c0,1,.19,1.92,.57,2.77,.38,.85,.89,1.58,1.54,2.2,.65,.62,1.4,1.11,2.25,1.45,.86,.35,1.76,.52,2.72,.52s1.86-.17,2.72-.52c.86-.34,1.61-.83,2.27-1.45,.66-.62,1.17-1.36,1.55-2.2,.38-.85,.57-1.77,.57-2.77s-.19-1.92-.57-2.77c-.38-.85-.9-1.58-1.55-2.2-.66-.62-1.41-1.11-2.27-1.45s-1.76-.52-2.72-.52-1.86,.17-2.72,.52-1.61,.83-2.25,1.45c-.65,.62-1.16,1.36-1.54,2.2-.38,.85-.57,1.77-.57,2.77Z"/>
      <path class="cls-3" d="M711.79,75.24v-25.17h6.54l12.08,15.39v-15.39h6.51v25.17h-6.51l-12.08-15.39v15.39h-6.54Z"/>
      <path class="cls-3" d="M757.69,70.86h-9.35l-1.5,4.37h-6.98l9.58-25.17h7.14l9.58,25.17h-6.98l-1.5-4.37Zm-1.74-4.97l-2.94-8.38-2.94,8.38h5.88Z"/>
      <path class="cls-3" d="M775.58,50.07v19.63h7.84v5.54h-14.39v-25.17h6.54Z"/>
    </g>
    <g>
      <path class="cls-3" d="M515.63,84.61v5.61c-2.74-2.29-5.57-3.43-8.5-3.43-3.23,0-5.95,1.16-8.16,3.47-2.22,2.3-3.34,5.12-3.34,8.45s1.11,6.07,3.34,8.33c2.22,2.26,4.95,3.39,8.18,3.39,1.67,0,3.08-.27,4.25-.81,.65-.27,1.33-.64,2.02-1.1,.7-.46,1.43-1.02,2.21-1.67v5.71c-2.71,1.53-5.56,2.3-8.54,2.3-4.49,0-8.32-1.56-11.49-4.69-3.16-3.16-4.74-6.96-4.74-11.42,0-4,1.32-7.56,3.97-10.69,3.25-3.83,7.46-5.75,12.63-5.75,2.82,0,5.55,.77,8.18,2.3Z"/>
      <path class="cls-3" d="M532.34,98.47c0-4.42,1.62-8.21,4.86-11.38,3.23-3.17,7.1-4.76,11.63-4.76s8.31,1.6,11.51,4.8c3.21,3.2,4.82,7.04,4.82,11.52s-1.61,8.34-4.84,11.48c-3.24,3.16-7.15,4.74-11.74,4.74-4.05,0-7.7-1.4-10.92-4.21-3.55-3.1-5.33-7.17-5.33-12.19Zm4.78,.06c0,3.47,1.17,6.32,3.5,8.56,2.32,2.23,5,3.35,8.03,3.35,3.29,0,6.07-1.14,8.34-3.41,2.26-2.3,3.4-5.11,3.4-8.41s-1.12-6.15-3.36-8.41c-2.22-2.28-4.98-3.41-8.26-3.41s-6.03,1.14-8.28,3.41c-2.25,2.25-3.38,5.03-3.38,8.33Z"/>
      <path class="cls-3" d="M582.52,114.3l6.61-33.73,10.78,24.38,11.17-24.38,5.94,33.73h-4.86l-3.03-18.94-9.29,20.38-9.03-20.4-3.38,18.96h-4.9Z"/>
      <path class="cls-3" d="M640.9,101.56v12.74h-4.74v-31.37h5.37c2.63,0,4.62,.18,5.96,.55,1.36,.37,2.55,1.06,3.58,2.07,1.8,1.76,2.71,3.98,2.71,6.66,0,2.87-.96,5.15-2.89,6.83-1.93,1.68-4.52,2.52-7.79,2.52h-2.2Zm0-4.39h1.77c4.35,0,6.53-1.67,6.53-5.02s-2.25-4.86-6.73-4.86h-1.57v9.88Z"/>
      <path class="cls-3" d="M687.3,106.68h-13.44l-3.5,7.62h-5.1l15.54-33.35,14.99,33.35h-5.19l-3.29-7.62Zm-1.93-4.45l-4.66-10.67-4.88,10.67h9.54Z"/>
      <path class="cls-3" d="M712.21,114.3v-33.51l22.9,23.94v-21.8h4.74v33.28l-22.9-23.88v21.97h-4.74Z"/>
      <path class="cls-3" d="M766.22,100.75l-10.25-17.82h5.45l7.18,12.54,7.2-12.54h5.45l-10.29,17.82v13.55h-4.74v-13.55Z"/>
    </g>
    <g>
      <path class="cls-3" d="M402.51,49.53c-.54,3.38-.61,5.69-.61,12.37v32.04c0,6.3-1.69,11.14-5.3,14.75-3.92,4-10.14,6.22-17.67,6.22-8.38,0-14.68-2.38-18.98-7.15-2.23-2.46-3.3-4.38-5.07-8.99l14.99-5.15c1.61,5.99,3.92,8.15,8.84,8.15s7.53-2.54,7.53-7.84v-31.97c0-6.53-.15-8.91-.61-12.45h16.91Z"/>
      <path class="cls-3" d="M426.09,92.64c.31,2.77,.85,4.15,2,5.69,1.84,2.31,5.07,3.61,8.99,3.61,5.92,0,9.45-2.61,9.45-6.92,0-2.38-1.23-4.46-3.23-5.38-1.61-.77-3.53-1.31-11.53-3.15-7.07-1.54-9.53-2.46-12.37-4.46-4.84-3.38-7.45-8.53-7.45-14.75,0-11.83,9.53-19.29,24.67-19.29,9.76,0,17.21,3,21.36,8.76,1.92,2.54,2.84,4.84,3.84,9.22l-16.29,1.77c-.92-5-3.69-7.07-9.53-7.07-4.69,0-8.15,2.54-8.15,6.07,0,2.15,1.15,3.77,3.61,4.92q1.54,.69,10.6,2.54c5.84,1.23,9.53,2.54,12.45,4.38,5.53,3.46,8.3,8.61,8.3,15.68,0,5.76-1.84,10.68-5.38,14.14-4.46,4.3-11.22,6.53-20.21,6.53-6.53,0-12.99-1.38-17.14-3.77-3.84-2.15-6.69-5.46-8.3-9.84-.77-1.84-1.15-3.61-1.69-7.15l15.98-1.54Z"/>
    </g>
    <rect class="cls-3" x="473.81" y="49.97" width="1.17" height="64.18"/>
    <g>
      <path class="cls-3" d="M393.31,158.53h-17.4v6.89h-3.19v-6.89h-17.02v-2.94h17.02v-3.57h-12.55v-15.87h12.17v-9.53h3.19v3.36h16.21v2.77h-16.21v3.4h13.66v15.87h-13.28v3.57h17.4v2.94Zm-30.04-15.74h22.68v-4h-22.68v4Zm0,6.6h22.68v-4.08h-22.68v4.08Z"/>
      <path class="cls-3" d="M399.01,161.76c2.08-2.64,3.7-6.81,4.64-10.13l2.81,.98c-1.02,3.49-2.51,7.91-4.6,10.64l-2.85-1.49Zm33.7-14.25h-29.61v-19.06h29.61v19.06Zm-26.64-10.89h10.34v-5.36h-10.34v5.36Zm0,8.08h10.34v-5.4h-10.34v5.4Zm17.11,16.93c2.09,0,2.43-.68,2.64-5.45,.72,.51,2.04,.98,2.94,1.19-.43,5.74-1.45,7.19-5.32,7.19h-8.55c-4.55,0-5.74-.94-5.74-4.3v-8.42h3.15v8.38c0,1.19,.43,1.4,2.81,1.4h8.08Zm-1.32-5.15c-1.83-1.91-5.66-4.51-8.81-6.21l2.09-1.91c3.15,1.53,6.98,4.08,8.89,6l-2.17,2.13Zm7.74-25.23h-10.08v5.36h10.08v-5.36Zm0,8.04h-10.08v5.4h10.08v-5.4Zm1.49,11.87c2.47,3.19,5.02,7.49,6,10.38l-3.06,1.36c-.85-2.85-3.32-7.28-5.74-10.6l2.81-1.15Z"/>
      <path class="cls-3" d="M479.34,128.53v37.02h-3.11v-1.96h-29.19v1.96h-3.02v-37.02h35.32Zm-3.11,32.21v-29.32h-29.19v29.32h29.19Zm-14.42-6.47c-4.42,.85-8.94,1.74-12.42,2.38l-.43-2.38c3.23-.51,7.96-1.36,12.72-2.21l.13,2.21Zm10.55-12.38c-1.06,4-2.68,7.49-4.72,10.42,.89,2.26,2.04,3.7,3.45,3.91,.6,.17,1.02-1.66,1.32-4.38,.51,.51,1.45,1.15,2.04,1.4-.55,4.64-2,6.34-4.21,5.49-1.87-.38-3.28-1.87-4.43-4.13-1.66,1.91-3.53,3.53-5.62,4.89-.38-.51-1.32-1.53-1.87-2,2.51-1.45,4.64-3.32,6.43-5.57-1.15-3.36-1.83-7.74-2.34-12.55h-13.02v-2.38h12.81c-.13-1.49-.26-2.98-.34-4.51h2.72c.09,1.53,.17,3.02,.26,4.51h9.28v2.38h-9.06c.34,3.66,.85,7.06,1.57,9.79,1.36-2.3,2.42-4.94,3.15-7.83l2.6,.55Zm-12.08,.17v8.25h-9.4v-8.25h9.4Zm-2.3,2h-4.89v4.26h4.89v-4.26Zm13.53-7.53c-.94-.94-2.89-2.26-4.55-2.98l1.49-1.57c1.66,.77,3.62,1.91,4.6,2.89l-1.53,1.66Z"/>
      <path class="cls-3" d="M499.29,129.38c-1.23,3.45-2.72,7.66-4.13,11.02,2.98,3.53,3.7,6.6,3.7,9.19,0,2.3-.47,4.13-1.62,4.98-.55,.43-1.32,.68-2.17,.81-.81,.08-1.87,.08-2.77,.04-.04-.81-.3-2-.77-2.81,.94,.08,1.74,.08,2.43,.04,.47,0,.94-.13,1.23-.38,.64-.47,.85-1.62,.85-2.94,0-2.3-.72-5.23-3.62-8.59,1.19-3.02,2.38-6.72,3.23-9.57h-5.45v34.17h-2.77v-37.02h9.32l.47-.17,2.04,1.23Zm25.4,1.74c-1.28,3.49-3.4,7.19-5.57,9.62,1.62,2.25,3.57,4.04,5.96,5.19-.6,.55-1.36,1.58-1.79,2.34-1.74-.98-3.32-2.25-4.64-3.7v1.58h-13.49v-1.96c-1.45,1.58-3.02,2.94-4.64,3.96-.38-.64-1.06-1.49-1.66-1.96,1.74-1.02,3.45-2.47,4.98-4.21-.98-.89-2.26-1.87-3.36-2.64l1.36-1.32c1.02,.68,2.3,1.53,3.23,2.38,.68-.94,1.28-1.83,1.79-2.85-.98-.72-2.26-1.57-3.28-2.17l1.11-1.49c1.02,.51,2.13,1.15,3.11,1.79,.55-1.15,.94-2.38,1.32-3.66h-4.6c-1.45,2.81-3.19,5.23-5.06,7.11-.43-.38-1.49-1.23-2.09-1.62,2.98-2.6,5.36-6.6,6.72-10.89l2.47,.55c-.3,.94-.64,1.79-1.02,2.68h4.47l.47-.09,1.45,.6c-.17-.81-.34-1.57-.51-2.42l2.38-.47c.17,.94,.38,1.83,.6,2.77h8l.55-.17,1.74,1.06Zm-18.81,24.59c-1.45,2.64-3.45,5.79-5.06,7.83-.51-.47-1.66-1.23-2.38-1.57,1.7-1.96,3.53-4.72,4.72-7.11l2.72,.85Zm7.36-2.98v9.36c0,1.57-.26,2.34-1.4,2.81-1.11,.51-2.81,.51-5.32,.51-.08-.85-.55-1.96-.98-2.77,2.04,.04,3.57,.04,4.08,0,.55,0,.68-.17,.68-.6v-9.32h-9.32v-2.64h21.79v2.64h-9.53Zm4.55-9.19c-2.68-3.36-4.55-7.74-5.83-12.85-1.23,5.23-3.49,9.57-6.25,12.85h12.08Zm-2.77-11.02c.72,2.21,1.62,4.25,2.64,6.08,1.36-1.7,2.6-4,3.49-6.08h-6.13Zm4.34,22.17c1.79,2.3,4.08,5.4,5.23,7.23l-2.47,1.57c-1.11-1.91-3.36-5.19-5.15-7.57l2.38-1.23Z"/>
      <path class="cls-3" d="M544.1,161.42c0,1.66-.34,2.55-1.36,3.11-1.02,.51-2.6,.55-5.28,.55-.13-.77-.51-2.13-.89-2.94,1.83,.04,3.45,.04,3.96,.04,.51-.04,.72-.25,.72-.81v-10.21h-6.34c-.34,4.98-1.19,10.25-3.11,14.3-.55-.47-1.83-1.19-2.55-1.49,2.85-5.96,3.06-14.38,3.06-20.59v-15.23h11.79v33.27Zm-2.85-13.19v-7.23h-6.08v2.34c0,1.49,0,3.15-.08,4.89h6.17Zm-6.08-17.19v7.06h6.08v-7.06h-6.08Zm30.85,14.89c-1.57,5.19-4.21,9.28-7.57,12.38,2.89,2.04,6.25,3.57,10.08,4.47-.64,.68-1.49,1.91-1.87,2.77-4.04-1.11-7.57-2.89-10.59-5.28-3.06,2.34-6.6,4-10.34,5.15-.34-.89-1.02-2.09-1.57-2.77,3.4-.89,6.77-2.34,9.7-4.42-2.68-2.68-4.81-5.96-6.38-9.74l.68-.26h-2.43v-2.98h17.87l.55-.13,1.87,.81Zm-13.49-12.98c0,3.79-1.11,8.34-6.08,11.36-.38-.68-1.45-1.87-1.96-2.34,4.43-2.64,5.19-6.08,5.19-9.11v-4.68h13.02v9.87c0,1.19,.09,1.57,.68,1.57h2.47c.55,0,1.32-.08,1.87-.21,.04,.81,.17,2,.21,2.72-.47,.17-1.28,.21-2.04,.21h-2.72c-2.77,0-3.36-1.19-3.36-4.38v-6.81h-7.28v1.79Zm-2.26,15.27c1.36,3.11,3.36,5.92,5.87,8.21,2.51-2.25,4.55-4.98,5.96-8.21h-11.83Z"/>
      <path class="cls-3" d="M585.37,127.6c-1.06,3.15-2.47,6.25-4,9.19v28.68h-3.11v-23.49c-1.15,1.74-2.38,3.32-3.62,4.77-.3-.77-1.23-2.38-1.79-3.11,3.83-4.13,7.36-10.47,9.53-16.89l2.98,.85Zm22,15.53s0,1.06-.04,1.49c-.6,12.93-1.15,17.57-2.47,19.1-.77,.94-1.62,1.28-2.81,1.4-1.06,.09-2.98,.09-4.94-.04-.04-.89-.34-2.13-.85-2.94,1.91,.17,3.7,.21,4.47,.21,.68,0,1.06-.09,1.45-.55,.89-1.02,1.49-5.06,2-15.7h-7.49c-1.15,9.36-4,15.53-10.3,19.4-.43-.6-1.53-1.79-2.17-2.34,5.92-3.23,8.47-8.85,9.32-17.06h-5.4v-2.72c-.89,1.02-1.79,1.91-2.81,2.77-.34-.72-1.32-2.13-1.96-2.77,4.43-3.49,7.62-9.15,9.36-15.66l3.06,.64c-1.62,5.7-4.13,10.85-7.45,14.76h19.02Zm-4.13-15.66c1.79,7.45,4.43,11.83,9.23,15.66-.85,.64-1.79,1.66-2.17,2.64-5.28-4.47-8-9.57-9.87-17.79l2.81-.51Z"/>
      <path class="cls-3" d="M631.83,135.04c-.81,1.66-1.66,3.36-2.6,4.94h20.51v21.49c0,1.91-.43,2.85-1.79,3.36-1.4,.51-3.79,.55-7.4,.55-.13-.94-.6-2.21-1.02-3.11,2.81,.13,5.36,.09,6.13,.09,.72-.04,.98-.25,.98-.89v-4.42h-17.74v8.38h-3.11v-20.51c-2.04,2.55-4.43,4.85-7.11,6.72-.38-.64-1.36-1.83-2-2.43,5.11-3.45,8.98-8.55,11.7-14.17h-10.68v-2.98h12c.72-1.83,1.36-3.66,1.87-5.49l3.15,.77c-.51,1.57-1.02,3.19-1.66,4.72h21.66v2.98h-22.89Zm14.81,7.79h-17.74v4.3h17.74v-4.3Zm0,11.49v-4.43h-17.74v4.43h17.74Z"/>
      <path class="cls-3" d="M675.23,129.43c-1.28,3.45-2.81,7.62-4.26,10.98,3.06,3.53,3.83,6.64,3.83,9.28,0,2.21-.51,4.08-1.66,4.89-.6,.47-1.4,.72-2.25,.81-.81,.13-1.91,.13-2.81,.08-.04-.81-.34-2-.81-2.81,.98,.08,1.79,.13,2.47,.04,.51-.04,.98-.13,1.32-.38,.64-.47,.89-1.66,.89-2.94,0-2.3-.77-5.23-3.83-8.64,1.23-3.06,2.51-6.72,3.36-9.53h-6.17v34.17h-2.81v-37.06h10.17l.47-.13,2.09,1.23Zm23.23,21.19c-2.17,1.79-4.98,3.66-7.32,5.06,2.09,3.02,4.81,5.36,8.21,6.76-.68,.6-1.66,1.87-2.17,2.68-6.64-3.15-10.59-9.66-12.72-18.08h-4.08v14l7.49-1.83c0,.94,.04,2.21,.17,2.89-8.77,2.38-10.04,2.81-10.89,3.36-.21-.68-.89-2-1.4-2.6,.68-.34,1.57-1.23,1.57-2.98v-31.44h18.59v18.59h-8.68c.64,2.3,1.45,4.47,2.51,6.38,2.21-1.49,4.89-3.49,6.64-5.02l2.09,2.21Zm-18.08-19.36v5.11h12.47v-5.11h-12.47Zm0,13.02h12.47v-5.28h-12.47v5.28Z"/>
      <path class="cls-3" d="M719.31,128.79c-2.85,6.89-7.36,13.32-11.96,17.49-.68-.64-2.13-1.74-2.94-2.25,4.77-3.75,9.02-9.83,11.53-16.17l3.36,.94Zm11.7,20.38c3.7,4.51,8.04,10.47,10.13,14.3l-3.06,1.7c-.68-1.36-1.7-3.02-2.81-4.77-22.34,1.53-24.64,1.66-26.21,2.25-.17-.68-.77-2.42-1.23-3.32,1.11-.25,2.25-1.53,3.87-3.53,1.66-1.91,6.81-9.28,10.21-16.34l3.4,1.53c-3.49,6.43-7.66,12.72-11.83,17.66l19.79-1.19c-1.7-2.38-3.53-4.85-5.19-6.94l2.94-1.36Zm-.68-21.62c2.81,5.79,8.21,12.51,12.6,16.04-.81,.64-2,1.83-2.64,2.68-4.38-4.04-9.79-11.15-13.06-17.53l3.11-1.19Z"/>
      <path class="cls-3" d="M783.35,160.74c0,2.17-.47,3.28-1.91,3.83-1.49,.55-4.13,.6-7.91,.6-.13-.94-.6-2.51-1.11-3.4,2.94,.08,5.87,.08,6.72,.04,.81-.04,1.02-.25,1.02-1.06v-28.38h-30.59v-3.02h33.79v31.4Zm-8.04-21.11h-25.45v-2.85h25.45v2.85Zm-19.66,18.08v3.11h-3.11v-16.64h19.87v13.53h-16.76Zm0-10.72v7.91h13.66v-7.91h-13.66Z"/>
    </g>
  </g>
</svg>