<?xml version="1.0" encoding="UTF-8"?>
<svg id="_圖層_2" data-name="圖層 2" xmlns="http://www.w3.org/2000/svg" viewBox="0 0 68 68">
  <defs>
    <style>
      .cls-1, .cls-2 {
        fill: #fff;
      }

      .cls-3 {
        fill: #198754;
      }

      .cls-2 {
        opacity: .2;
      }
    </style>
  </defs>
  <path class="cls-3" d="M55.3,46.5c-1,9-11.6,14.64-21.3,14.64s-20.3-5.64-21.3-14.64c-1.33-11.97,6-19,13-28s8.3-11.64,8.3-11.64c0,0,1.3,2.64,8.3,11.64s14.33,16.03,13,28Z"/>
  <path class="cls-2" d="M46.3,50.5c-1.08,6.99-8.3,10.64-12.3,10.64s-11.22-3.65-12.3-10.64c-2-13,12.3-20.59,12.3-20.59,0,0,14.3,7.59,12.3,20.59Z"/>
  <path class="cls-1" d="M38.8,55.5c-.5,6-4.8,5.64-4.8,5.64,0,0-4.3,.36-4.8-5.64-.59-7.13,4.8-11.5,4.8-11.5,0,0,5.39,4.37,4.8,11.5Z"/>
</svg>