<svg id="paranthesesSvg" data-name="parantheses" xmlns="http://www.w3.org/2000/svg" viewBox="0 0 14 48"><path fill="currentColor" d="M13.6,45C11,45,9,44.44,7.68,43.31a6,6,0,0,1-2-4.81V30.26a6.42,6.42,0,0,0-1.2-4.33C3.69,25,2.33,24.58.4,24.58V23.42c1.93,0,3.29-.43,4.1-1.3s1.2-2.33,1.2-4.38V9.5a6,6,0,0,1,2-4.81C9,3.56,11,3,13.6,3V4.2a7.78,7.78,0,0,0-5,1.33A5.23,5.23,0,0,0,7,9.79v8.14A8.63,8.63,0,0,1,6.16,22a3.91,3.91,0,0,1-3,2v.1a3.91,3.91,0,0,1,3,2A8.63,8.63,0,0,1,7,30.07v8.28a5,5,0,0,0,1.59,4.12,7.78,7.78,0,0,0,5,1.33Z"/></svg>